<svg xmlns="http://www.w3.org/2000/svg" xmlns:xlink="http://www.w3.org/1999/xlink" xml:space="preserve" width="372" height="343" viewBox="-0.212 0.058 372 343"><linearGradient id="a" x1="1101.212" x2="1096.161" y1="-596.417" y2="-550.672" gradientTransform="translate(143.689 142.972) scale(.0934)" gradientUnits="userSpaceOnUse"><stop offset="0" style="stop-color:#8db3df"/><stop offset="1" style="stop-color:#baceeb"/></linearGradient><path fill="url(#a)" d="m308.085 92.619-6.467-.728-116.289-12.963v4.353l115.836 12.893z"/><linearGradient id="b" x1="1449.578" x2="518.457" y1="394.324" y2="169.708" gradientTransform="translate(143.689 142.972) scale(.0934)" gradientUnits="userSpaceOnUse"><stop offset="0" style="stop-color:#c2d5ee"/><stop offset="1" style="stop-color:#8bafdc"/></linearGradient><path fill="url(#b)" d="m185.329 83.281 115.836 12.893-17.508 31.146s-2.137 41.918-3.555 58.375c-1.439 16.482-1.797 29.375-14.287 34.723-24.994 10.744-55.849 20.377-80.486 25.725V83.281z"/><linearGradient id="c" x1="1629.348" x2="1669.369" y1="-655.271" y2="-632.665" gradientTransform="translate(143.689 171.17) scale(.0934)" gradientUnits="userSpaceOnUse"><stop offset=".58" style="stop-color:#505e62"/><stop offset="1" style="stop-color:#636d71"/></linearGradient><path fill="url(#c)" d="m308.085 92.619-6.92 3.555-17.508 31.145 4.301.635 16.924-29.675z"/><linearGradient id="d" x1="-142.486" x2="-412.878" y1="-1448.991" y2="852.021" gradientTransform="matrix(.0726 0 0 .0728 146.414 173.786)" gradientUnits="userSpaceOnUse"><stop offset="0" style="stop-color:#eef3fa"/><stop offset=".52" style="stop-color:#697f92"/><stop offset="1" style="stop-color:#5a6e7d"/></linearGradient><path fill="url(#d)" d="m62.598 92.619 6.426-.729 116.305-12.963v4.354L69.5 96.174l17.488 31.146s2.146 41.918 3.595 58.375c1.417 16.482 1.766 29.375 14.284 34.723 24.988 10.744 55.826 20.377 80.462 25.725v4.449c-26.179-5.719-58.085-15.869-82.174-26.225-14.144-6.074-15.288-19.725-16.621-35.541l-.226-2.771c-1.307-14.91-3.255-51.623-3.594-58.1L65.762 98.279l-3.164-5.66z"/><linearGradient id="e" x1="-1213.62" x2="-1091.964" y1="-3811.5" y2="-3413.365" gradientTransform="translate(154.533 181.634) scale(.0261)" gradientUnits="userSpaceOnUse"><stop offset="0" style="stop-color:#afc1d8"/><stop offset="1" style="stop-color:#c7daf1"/></linearGradient><path fill="url(#e)" d="m62.598 92.619 6.426-.728 116.305-12.963v4.353L69.5 96.174z"/><linearGradient id="f" x1="407.585" x2="-924.774" y1="-124.642" y2="-124.642" gradientTransform="matrix(.0726 0 0 .0728 146.414 173.786)" gradientUnits="userSpaceOnUse"><stop offset="0" style="stop-color:#ebf0f9"/><stop offset="1" style="stop-color:#b6cfec"/></linearGradient><path fill="url(#f)" d="M185.329 83.281 69.5 96.174l17.488 31.146s2.146 41.918 3.595 58.375c1.417 16.482 1.766 29.375 14.284 34.723 24.988 10.744 55.826 20.377 80.462 25.725V83.281z"/><linearGradient id="g" x1="-711.891" x2="-751.884" y1="-669.808" y2="-647.218" gradientTransform="translate(143.689 171.17) scale(.0934)" gradientUnits="userSpaceOnUse"><stop offset=".58" style="stop-color:#505e62"/><stop offset="1" style="stop-color:#636d71"/></linearGradient><path fill="url(#g)" d="m62.598 92.619 6.902 3.555 17.487 31.145-4.273.635-16.952-29.675z"/><defs><path id="h" d="M283.657 127.319s-2.137 41.918-3.555 58.375c-1.439 16.482-1.797 29.375-14.287 34.723-24.994 10.744-55.849 20.377-80.486 25.725v4.449c26.174-5.719 58.08-15.869 82.17-26.225 14.154-6.074 15.305-19.725 16.639-35.541l.229-2.771c1.285-14.91 3.252-51.623 3.592-58.1l-4.302-.635z"/></defs><clipPath id="i"><use xlink:href="#h" overflow="visible"/></clipPath><g clip-path="url(#i)"><path fill="#81878B" d="M283.657 127.319s-2.137 41.918-3.555 58.375c-1.439 16.482-1.797 29.375-14.287 34.723-24.994 10.744-55.849 20.377-80.486 25.725v4.449c26.174-5.719 58.08-15.869 82.17-26.225 14.154-6.074 15.305-19.725 16.639-35.541l.229-2.771c1.285-14.91 3.252-51.623 3.592-58.1l-4.302-.635z"/><path fill="#7D8488" d="M287.618 127.901c-.313 5.995-2.279 43.091-3.582 58.135 0 .082-.238 2.73-.238 2.818-1.322 15.734-2.477 29.221-16.432 35.205-24.145 10.404-55.969 20.512-82.037 26.189l-.32-4.395c24.631-5.385 55.5-14.992 80.496-25.73 12.48-5.373 12.848-18.141 14.266-34.611 1.447-16.487 3.582-58.377 3.582-58.377l4.265.766z"/><path fill="#798186" d="M287.288 127.843c-.287 5.495-2.254 42.995-3.596 58.141 0 .211-.217 2.707-.244 2.9-1.285 15.646-2.457 28.967-16.205 34.883-24.219 10.432-55.969 20.482-81.914 26.131l-.639-4.367c24.646-5.359 55.486-14.992 80.473-25.736 12.498-5.355 12.877-18 14.287-34.482 1.436-16.463 3.572-58.364 3.572-58.364l4.266.894z"/><path fill="#757D82" d="M286.966 127.819c-.264 4.971-2.25 42.86-3.576 58.153-.027.258-.236 2.672-.254 2.918-1.303 15.598-2.459 28.744-16.025 34.588-24.295 10.434-55.971 20.459-81.781 26.09l-.982-4.348c24.658-5.361 55.508-15 80.496-25.719 12.498-5.375 12.873-17.895 14.295-34.365 1.445-16.469 3.563-58.376 3.563-58.376l4.264 1.059z"/><path fill="#71797F" d="M286.626 127.761c-.23 4.482-2.23 42.789-3.572 58.18-.041.359-.232 2.615-.25 2.979-1.324 15.492-2.438 28.498-15.813 34.246-24.367 10.475-55.953 20.459-81.662 26.055l-1.281-4.301c24.627-5.371 55.475-14.975 80.471-25.736 12.484-5.361 12.881-17.764 14.314-34.223 1.42-16.482 3.557-58.383 3.557-58.383l4.236 1.183z"/><path fill="#6E777D" d="M286.306 127.712c-.209 4.014-2.246 42.679-3.576 58.217a180.77 180.77 0 0 1-.264 3.008c-1.313 15.422-2.43 28.279-15.621 33.934-24.439 10.48-55.93 20.432-81.516 26.016l-1.613-4.285c24.648-5.365 55.486-14.992 80.465-25.707 12.506-5.391 12.898-17.664 14.324-34.135 1.445-16.458 3.582-58.371 3.582-58.371l4.219 1.323z"/><path fill="#6A737A" d="M285.972 127.642c-.188 3.502-2.221 42.596-3.582 58.241l-.273 3.072c-1.268 15.375-2.404 28.033-15.412 33.611-24.475 10.533-55.924 20.436-81.375 25.973l-1.945-4.242c24.656-5.379 55.506-14.975 80.498-25.738 12.488-5.373 12.883-17.516 14.287-33.986 1.451-16.47 3.596-58.353 3.596-58.353l4.206 1.422z"/><path fill="#667077" d="M285.651 127.612c-.16 3.001-2.211 42.479-3.592 58.258-.059.607-.209 2.514-.277 3.113-1.273 15.275-2.391 27.779-15.191 33.252-24.574 10.592-55.912 20.432-81.262 25.961l-2.266-4.213c24.637-5.371 55.484-14.986 80.494-25.721 12.488-5.377 12.885-17.41 14.334-33.873 1.4-16.482 3.535-58.361 3.535-58.361l4.225 1.584z"/><path fill="#626E75" d="M285.302 127.571c-.111 2.483-2.174 42.391-3.563 58.264-.068.707-.219 2.49-.277 3.148-1.277 15.234-2.41 27.545-14.992 32.969-24.66 10.592-55.914 20.414-81.141 25.904l-2.598-4.184c24.646-5.385 55.5-14.988 80.504-25.727 12.488-5.361 12.895-17.264 14.314-33.734 1.426-16.464 3.563-58.371 3.563-58.371l4.19 1.731z"/><path fill="#5E6A72" d="M284.999 127.524c-.115 1.989-2.195 42.283-3.584 58.282-.076.818-.227 2.432-.273 3.207-1.268 15.135-2.402 27.303-14.805 32.635-24.715 10.619-55.894 20.389-81.008 25.879l-2.91-4.16c24.629-5.367 55.486-14.994 80.484-25.732 12.49-5.371 12.904-17.146 14.334-33.609 1.426-16.476 3.563-58.365 3.563-58.365l4.199 1.863z"/><path fill="#5A6770" d="M284.64 127.478c-.059 1.495-2.164 42.184-3.563 58.293-.086.918-.191 2.426-.277 3.26-1.273 15.07-2.402 27.068-14.596 32.299-24.789 10.65-55.884 20.389-80.875 25.844l-3.23-4.131c24.627-5.354 55.484-14.992 80.484-25.721 12.494-5.383 12.904-17.01 14.33-33.492 1.432-16.482 3.57-58.359 3.57-58.359l4.157 2.007z"/><path fill="#57656E" d="M284.327 127.413c-.066 1-2.164 42.107-3.574 58.346a468.36 468.36 0 0 0-.281 3.309c-1.258 14.969-2.387 26.809-14.402 31.969-24.846 10.684-55.854 20.375-80.74 25.801l-3.563-4.105c24.631-5.361 55.508-14.977 80.482-25.732 12.494-5.355 12.918-16.859 14.334-33.363 1.449-16.453 3.594-58.365 3.594-58.365l4.15 2.14z"/><path fill="#52626B" d="M284.005 127.384c-.045.488-2.154 41.977-3.58 58.346-.094 1.055-.201 2.32-.287 3.379-1.256 14.893-2.371 26.537-14.197 31.615-24.914 10.732-55.859 20.377-80.611 25.771l-3.895-4.053c24.643-5.385 55.498-15.006 80.496-25.727 12.5-5.4 12.936-16.77 14.354-33.256 1.432-16.464 3.553-58.373 3.553-58.373l4.167 2.298z"/><path fill="#4F6069" d="M181.133 242.113c24.621-5.385 55.481-14.971 80.458-25.707 12.516-5.391 12.943-16.654 14.381-33.111 1.428-16.47 3.555-58.388 3.555-58.388l4.131 2.413s-2.137 41.918-3.555 58.375c-.105 1.154-.189 2.289-.307 3.414-1.244 14.832-2.369 26.332-13.98 31.309-24.994 10.744-55.849 20.377-80.486 25.725l-4.197-4.03z"/></g><defs><path id="j" d="M86.933 127.319s2.145 41.918 3.563 58.375c1.418 16.482 1.795 29.375 14.287 34.723 24.995 10.744 55.855 20.377 80.492 25.725v4.449c-26.188-5.719-58.098-15.869-82.167-26.225-14.173-6.074-15.307-19.725-16.631-35.541l-.243-2.771c-1.288-14.91-3.255-51.623-3.594-58.1l4.293-.635z"/></defs><clipPath id="k"><use xlink:href="#j" overflow="visible"/></clipPath><g clip-path="url(#k)"><path fill="#81878B" d="M86.933 127.319s2.145 41.918 3.563 58.375c1.418 16.482 1.795 29.375 14.287 34.723 24.995 10.744 55.855 20.377 80.492 25.725v4.449c-26.188-5.719-58.098-15.869-82.167-26.225-14.173-6.074-15.307-19.725-16.631-35.541l-.243-2.771c-1.288-14.91-3.255-51.623-3.594-58.1l4.293-.635z"/><path fill="#7D8488" d="M82.979 127.901c.302 5.995 2.271 43.091 3.573 58.135.021.082.248 2.73.248 2.818 1.304 15.734 2.467 29.221 16.421 35.205 24.137 10.404 55.989 20.512 82.055 26.189l.304-4.395c-24.623-5.385-55.478-14.992-80.467-25.73-12.508-5.373-12.866-18.141-14.304-34.611-1.399-16.487-3.564-58.377-3.564-58.377l-4.266.766z"/><path fill="#798186" d="M83.301 127.843c.293 5.495 2.269 42.995 3.592 58.141 0 .211.217 2.707.238 2.9 1.313 15.646 2.467 28.967 16.213 34.883 24.231 10.432 55.971 20.482 81.931 26.131l.64-4.367c-24.638-5.359-55.485-14.992-80.472-25.736-12.518-5.355-12.888-18-14.315-34.482-1.424-16.463-3.563-58.364-3.563-58.364l-4.264.894z"/><path fill="#757D82" d="M83.643 127.819c.245 4.971 2.249 42.86 3.572 58.153.029.258.228 2.672.247 2.918 1.316 15.598 2.458 28.744 16.015 34.588 24.297 10.434 55.969 20.459 81.799 26.09l.962-4.348c-24.637-5.361-55.495-15-80.473-25.719-12.518-5.375-12.876-17.895-14.315-34.365-1.436-16.469-3.564-58.376-3.564-58.376l-4.243 1.059z"/><path fill="#71797F" d="M83.962 127.761c.236 4.482 2.261 42.789 3.573 58.18.04.359.228 2.615.266 2.979 1.295 15.492 2.439 28.498 15.807 34.246 24.374 10.475 55.97 20.459 81.667 26.055l1.284-4.301c-24.637-5.371-55.476-14.975-80.483-25.736-12.508-5.361-12.879-17.764-14.315-34.223-1.417-16.482-3.583-58.383-3.583-58.383l-4.216 1.183z"/><path fill="#6E777D" d="M84.285 127.712c.207 4.014 2.249 42.679 3.582 58.217.047.432.236 2.586.255 3.008 1.304 15.422 2.46 28.279 15.621 33.934 24.447 10.48 55.938 20.432 81.532 26.016l1.606-4.285c-24.639-5.365-55.477-14.992-80.475-25.707-12.517-5.391-12.886-17.664-14.315-34.135-1.436-16.458-3.582-58.371-3.582-58.371l-4.224 1.323z"/><path fill="#6A737A" d="M84.608 127.642c.198 3.502 2.238 42.596 3.591 58.241.057.549.217 2.561.273 3.072 1.276 15.375 2.413 28.033 15.393 33.611 24.523 10.533 55.94 20.436 81.411 25.973l1.94-4.242c-24.631-5.379-55.509-14.975-80.488-25.738-12.509-5.373-12.894-17.516-14.331-33.986-1.42-16.47-3.564-58.353-3.564-58.353l-4.225 1.422z"/><path fill="#667077" d="M84.956 127.612c.143 3.001 2.193 42.479 3.592 58.258.037.607.201 2.514.238 3.113 1.304 15.275 2.42 27.779 15.201 33.252 24.592 10.592 55.931 20.432 81.289 25.961l2.251-4.213c-24.638-5.371-55.479-14.986-80.476-25.721-12.499-5.377-12.905-17.41-14.333-33.873-1.427-16.482-3.564-58.361-3.564-58.361l-4.198 1.584z"/><path fill="#626E75" d="M85.267 127.571c.133 2.483 2.212 42.391 3.595 58.264.056.707.206 2.49.271 3.148 1.277 15.234 2.413 27.545 14.985 32.969 24.646 10.592 55.915 20.414 81.157 25.904l2.589-4.184c-24.646-5.385-55.496-14.988-80.494-25.727-12.498-5.361-12.904-17.264-14.331-33.734-1.418-16.464-3.575-58.371-3.575-58.371l-4.197 1.731z"/><path fill="#5E6A72" d="M85.608 127.524c.105 1.989 2.193 42.283 3.573 58.282.076.818.228 2.432.266 3.207 1.285 15.135 2.421 27.303 14.824 32.635 24.695 10.619 55.892 20.389 81.004 25.879l2.903-4.16c-24.629-5.367-55.487-14.994-80.485-25.732-12.498-5.371-12.896-17.146-14.334-33.609-1.435-16.476-3.572-58.365-3.572-58.365l-4.179 1.863z"/><path fill="#5A6770" d="M85.938 127.478c.066 1.495 2.165 42.184 3.583 58.293.076.918.19 2.426.266 3.26 1.286 15.07 2.401 27.068 14.597 32.299 24.779 10.65 55.896 20.389 80.891 25.844l3.223-4.131c-24.628-5.354-55.469-14.992-80.485-25.721-12.498-5.383-12.913-17.01-14.341-33.492-1.426-16.482-3.575-58.359-3.575-58.359l-4.159 2.007z"/><path fill="#57656E" d="M86.271 127.413c.056 1 2.164 42.107 3.57 58.346.086.979.199 2.355.285 3.309 1.257 14.969 2.383 26.809 14.39 31.969 24.866 10.684 55.877 20.375 80.759 25.801l3.556-4.105c-24.639-5.361-55.499-14.977-80.476-25.732-12.509-5.355-12.934-16.859-14.36-33.363-1.439-16.453-3.566-58.365-3.566-58.365l-4.158 2.14z"/><path fill="#52626B" d="M86.6 127.384c.029.488 2.149 41.977 3.563 58.346.098 1.055.211 2.32.286 3.379 1.247 14.893 2.382 26.537 14.199 31.615 24.923 10.732 55.858 20.377 80.627 25.771l3.876-4.053c-24.637-5.385-55.496-15.006-80.485-25.727-12.506-5.4-12.934-16.77-14.361-33.256-1.408-16.464-3.554-58.373-3.554-58.373l-4.151 2.298z"/><path fill="#4F6069" d="M189.474 242.113c-24.641-5.385-55.478-14.971-80.494-25.707-12.48-5.391-12.934-16.654-14.354-33.111-1.429-16.47-3.553-58.388-3.553-58.388l-4.141 2.413s2.145 41.918 3.563 58.375c.103 1.154.208 2.289.293 3.414 1.257 14.832 2.383 26.332 13.994 31.309 24.995 10.744 55.855 20.377 80.492 25.725l4.2-4.03z"/></g><path fill="#FFF" d="M185.315 83.105 69.479 96.003l-.247.023.114.241 17.5 31.146-.01-.094c.01.436 2.147 42.1 3.556 58.387l.236 2.76c1.276 15.105 2.269 27.033 14.155 32.129 23.832 10.238 54.672 20.094 80.511 25.748H185.37c25.811-5.654 56.68-15.51 80.514-25.748 11.883-5.096 12.883-17.023 14.152-32.129l.217-2.76c1.418-16.288 3.563-57.952 3.592-58.387l-.029.094 17.482-31.146.123-.241-.234-.023-115.835-12.898h-.037zm115.702 12.98-17.492 31.158-.02.035v.041c-.029.424-2.166 42.088-3.584 58.375l-.236 2.748c-1.256 14.98-2.25 26.797-13.924 31.828-23.834 10.232-54.656 20.088-80.467 25.701h.076c-25.81-5.613-56.651-15.469-80.458-25.701-11.685-5.031-12.696-16.848-13.935-31.828l-.245-2.748c-1.41-16.288-3.537-57.952-3.575-58.375v-.041l-.009-.035-17.5-31.158-.123.271 115.826-12.897h-.036l115.83 12.897-.128-.271z"/><path fill="#CFCFCF" d="M139.27 3.851C73.563 23.045 16.706 72.036 16.706 154.769c0 85.09 73.042 157.584 168.682 162.534l-.018 16.639c-84.085 0-180.974-69.057-180.974-174.689 0-90.799 56.31-136.631 123.452-158.262.833-.164 1.723-.117 2.496.037 2.875.576 5.825 1.2 8.926 2.823"/><defs><path id="l" d="M139.27 3.851C73.563 23.045 16.706 72.036 16.706 154.769c0 85.09 73.042 157.584 168.682 162.534l-.059 16.639c-84.084 0-180.933-69.057-180.933-174.689 0-90.799 56.31-136.631 123.452-158.262.833-.164 1.723-.117 2.496.037 2.875.576 5.825 1.2 8.926 2.823"/></defs><clipPath id="m"><use xlink:href="#l" overflow="visible"/></clipPath><path fill="#CFCFCF" d="M185.483 339.142C77.582 339.142 0 247.339 0 160.099 0 127.978 22.056 56.373 70.709 56.373c-10.098 10.086-38.093 43.608-38.093 91.582 0 65.867 44.521 137.496 152.753 148.41 28.805 2.906 54.269 42.777.114 42.777z" clip-path="url(#m)"/><g clip-path="url(#m)"><path fill="#CED0D2" d="M184.405 296.599c24.395 2.32 45.076 30.475 19.695 39.061-4.945 1.664-11.603 2.629-20.263 2.564-102.275-.836-176.512-83.32-182.741-166.745a153.07 153.07 0 0 1-.433-11.526c.113-25.995 14.095-75.076 43.213-94.347 7.544-4.891 16.15-7.673 25.925-7.372-8.104 8.572-27.417 32.004-34.442 65.354a121.744 121.744 0 0 0-2.601 25.727c.416 65.991 45.721 136.782 151.647 147.284z"/><path fill="#C9CBCD" d="M183.431 296.824c24.658 2.248 44.256 30.127 18.869 38.166-4.961 1.541-11.561 2.418-20.089 2.305C80.729 335.648 7.705 254.458 1.729 171.209a153.989 153.989 0 0 1-.407-11.427c.208-26.65 14.446-74.795 42.951-93.447 7.166-4.472 15.333-6.831 24.582-6.214-7.99 8.969-26.783 32.346-33.535 65.037-1.579 7.997-2.504 16.53-2.42 25.532.842 66.108 46.884 136.071 150.531 146.134z"/><path fill="#C6C8CB" d="M182.477 297.07c24.884 2.131 43.413 29.77 18.036 37.248-4.999 1.453-11.551 2.23-19.908 2.066-100.709-2.49-172.494-82.32-178.25-165.435a151.25 151.25 0 0 1-.362-11.351c.304-27.285 14.779-74.487 42.697-92.527 6.768-4.043 14.484-6.015 23.238-5.066-7.902 9.344-26.142 32.691-32.617 64.743a123.624 123.624 0 0 0-2.27 25.29c1.258 66.225 48.077 135.358 149.436 145.032z"/><path fill="#C1C4C7" d="M181.513 297.3c25.149 2.066 42.582 29.416 17.215 36.369-5.02 1.303-11.512 2.014-19.768 1.785C79.066 332.134 8.481 253.646 2.986 170.68c-.254-3.76-.359-7.521-.329-11.228.395-27.926 15.106-74.252 42.448-91.64 6.381-3.624 13.631-5.178 21.896-3.912-7.81 9.726-25.526 33.046-31.728 64.432a125.694 125.694 0 0 0-2.08 25.095C34.877 219.748 82.45 288.05 181.513 297.3z"/><path fill="#BEC1C3" d="M180.548 297.517c25.395 1.99 41.744 29.082 16.377 35.465-5.049 1.211-11.48 1.818-19.582 1.553C78.233 330.376 8.86 253.228 3.639 170.408a146.85 146.85 0 0 1-.34-11.138c.512-28.563 15.478-73.97 42.205-90.705 5.991-3.226 12.8-4.378 20.59-2.808-7.752 10.134-24.923 33.423-30.84 64.15a125.34 125.34 0 0 0-1.919 24.86c2.1 66.475 50.438 133.943 147.213 142.75z"/><path fill="#BABDC0" d="M179.563 297.765c25.67 1.854 40.918 28.721 15.572 34.559-5.06 1.094-11.447 1.605-19.427 1.293C77.391 328.628 9.265 252.822 4.263 170.155a145.061 145.061 0 0 1-.283-11.057c.588-29.19 15.808-73.682 41.939-89.815 5.597-2.76 11.969-3.525 19.23-1.63-7.629 10.526-24.297 33.774-29.914 63.832a126.503 126.503 0 0 0-1.749 24.648c2.524 66.597 51.612 133.218 146.077 141.632z"/><path fill="#B7BABD" d="M178.599 298.007c25.913 1.766 40.088 28.367 14.734 33.645-5.07.971-11.423 1.4-19.253 1.047C76.561 326.875 9.643 252.406 4.887 169.896a146.047 146.047 0 0 1-.246-10.955c.701-29.845 16.15-73.428 41.684-88.917 5.228-2.353 11.148-2.706 17.916-.506-7.583 10.916-23.674 34.135-29.023 63.55a125.615 125.615 0 0 0-1.588 24.442c2.947 66.704 52.8 132.507 144.969 140.497z"/><path fill="#B3B7BA" d="M177.636 298.218c26.17 1.695 39.253 28.039 13.918 32.764-5.127.877-11.402 1.229-19.097.789C75.738 325.138 10.023 252 5.531 169.632c-.227-3.636-.304-7.267-.227-10.874.785-30.456 16.498-73.146 41.428-87.98 4.84-1.953 10.305-1.877 16.583.624-7.487 11.321-23.05 34.499-28.118 63.237-1.191 7.726-1.757 15.835-1.418 24.242 3.366 66.81 53.984 131.777 143.857 139.337z"/><path fill="#AFB3B7" d="M176.683 298.46c26.412 1.611 38.412 27.68 13.074 31.838-5.143.783-11.373 1.014-18.936.561C74.915 323.378 10.409 251.593 6.153 169.36a146.987 146.987 0 0 1-.207-10.762c.908-31.115 16.849-72.863 41.192-87.092 4.443-1.513 9.473-1.03 15.258 1.777-7.392 11.703-22.444 34.852-27.228 62.914a126.942 126.942 0 0 0-1.238 24.043c3.779 66.933 55.156 131.088 142.753 138.22z"/><path fill="#ACB0B3" d="M175.708 298.689c26.679 1.506 37.587 27.326 12.269 30.951-5.16.646-11.381.83-18.784.287-95.101-8.306-158.407-78.748-162.416-160.836a148.677 148.677 0 0 1-.169-10.634c1.002-31.786 17.217-72.64 40.938-86.202 4.063-1.101 8.619-.23 13.925 2.918-7.318 12.087-21.812 35.199-26.323 62.625a127.386 127.386 0 0 0-1.074 23.825c4.199 67.033 56.337 130.351 141.634 137.066z"/><path fill="#A9ADB0" d="M174.743 298.919c26.928 1.412 36.748 26.996 11.439 30.055-5.199.541-11.335.605-18.615.023C73.26 319.871 11.164 250.75 7.42 168.837c-.18-3.561-.226-7.077-.142-10.556 1.088-32.393 17.538-72.335 40.673-85.298 3.679-.67 7.81.612 12.584 4.066-7.213 12.475-21.177 35.553-25.396 62.325-1.021 7.597-1.361 15.493-.943 23.602 4.651 67.162 57.548 129.658 140.547 135.943z"/><path fill="#A5AAAE" d="M173.76 299.154c27.188 1.318 35.935 26.65 10.625 29.162-5.209.395-11.308.395-18.454-.242-93.512-9.973-154.388-77.74-157.877-159.5a155.925 155.925 0 0 1-.132-10.464c1.201-33.045 17.897-72.079 40.434-84.371 3.304-.266 6.96 1.416 11.251 5.189-7.135 12.874-20.551 35.922-24.502 62.024-.917 7.562-1.25 15.387-.758 23.396 5.057 67.273 58.729 128.929 139.413 134.806z"/><path fill="#A2A7AB" d="M172.785 299.384c27.446 1.217 35.104 26.314 9.806 28.262-5.229.316-11.271.176-18.286-.494C71.578 316.341 11.922 249.945 8.688 168.319a147.43 147.43 0 0 1-.094-10.392c1.304-33.669 18.227-71.78 40.182-83.449 2.891.146 6.125 2.235 9.916 6.331-7.043 13.281-19.958 36.294-23.597 61.72a124.142 124.142 0 0 0-.576 23.201c5.463 67.393 59.873 128.211 138.266 133.654z"/><path fill="#9EA4A8" d="M171.832 299.619c27.701 1.135 34.259 25.943 8.978 27.361-5.255.172-11.256 0-18.131-.752C70.756 314.593 12.308 249.527 9.31 168.055a143.9 143.9 0 0 1-.045-10.273c1.389-34.323 18.578-71.528 39.917-82.561 2.523.576 5.283 3.077 8.594 7.461-6.979 13.681-19.336 36.652-22.71 61.436a129.471 129.471 0 0 0-.419 22.961c5.902 67.508 61.085 127.508 137.185 132.54z"/><path fill="#9BA1A5" d="M170.866 299.855c27.947 1.023 33.432 25.584 8.151 26.432-5.295.1-11.215-.182-17.963-.973C69.932 312.847 12.687 249.109 9.937 167.807a128.361 128.361 0 0 1 0-10.195c1.464-34.976 18.918-71.247 39.652-81.673 2.127 1.029 4.45 3.925 7.261 8.644-6.875 14.057-18.72 36.994-21.803 61.112a125.965 125.965 0 0 0-.228 22.736c6.297 67.639 62.228 126.805 136.047 131.424z"/><path fill="#989EA2" d="M169.901 300.101c28.215.936 32.572 25.232 7.327 25.525-5.313-.018-11.202-.383-17.8-1.242C69.121 311.087 13.065 248.685 10.57 167.525a164.64 164.64 0 0 1 0-10.086c1.608-35.611 19.295-70.987 39.413-80.743 1.76 1.431 3.623 4.727 5.938 9.744-6.796 14.481-18.083 37.395-20.913 60.819a129.158 129.158 0 0 0-.056 22.548c6.732 67.757 63.436 126.087 134.949 130.294z"/><path fill="#949B9F" d="M168.917 300.332c28.478.84 31.768 24.889 6.507 24.643-5.333-.16-11.167-.619-17.631-1.512-89.505-14.123-144.34-75.188-146.571-156.214-.113-3.371-.113-6.714.009-9.973 1.712-36.23 19.647-70.698 39.169-79.843 1.363 1.864 2.78 5.556 4.606 10.903-6.723 14.852-17.482 37.723-19.998 60.512a126.8 126.8 0 0 0 .086 22.338c7.157 67.862 64.63 125.355 133.823 129.146z"/><path fill="#91989C" d="M167.955 300.566c28.733.752 30.925 24.531 5.691 23.748-5.36-.27-11.154-.811-17.473-1.764-88.736-14.957-142.332-74.693-144.328-155.554-.103-3.36-.075-6.644.057-9.898 1.797-36.869 19.968-70.421 38.914-78.918.973 2.271 1.929 6.367 3.25 12.04-6.617 15.228-16.847 38.082-19.097 60.213-.511 7.319-.452 14.691.266 22.129 7.572 67.967 65.802 124.645 132.72 128.004z"/><path fill="#8E9599" d="M167.01 300.783c28.958.66 30.062 24.203 4.841 22.85-5.38-.359-11.122-1-17.312-2C66.625 305.832 14.22 247.451 12.471 166.725c-.078-3.307-.059-6.573.094-9.785 1.879-37.5 20.326-70.146 38.659-78.018.575 2.688 1.096 7.202 1.92 13.186-6.524 15.617-16.216 38.418-18.192 59.896-.463 7.268-.34 14.587.444 21.918 7.979 68.091 66.965 123.931 131.614 126.861z"/><path fill="#8B9296" d="M166.048 301.019c29.202.564 29.229 23.865 4.025 21.941a204.64 204.64 0 0 1-17.169-2.27c-87.112-16.6-138.296-73.652-139.809-154.224-.057-3.291-.029-6.515.113-9.697C15.23 118.61 33.893 86.906 51.63 79.656c.208 3.113.264 8.051.586 14.328-6.45 16.022-15.583 38.788-17.284 59.596-.408 7.22-.208 14.475.595 21.707 8.407 68.226 68.166 123.209 130.521 125.732z"/><path fill="#888F94" d="M165.072 301.253c29.488.488 28.419 23.525 3.202 21.037a218.616 218.616 0 0 1-16.986-2.514c-86.329-17.445-136.304-73.15-137.553-153.587-.064-3.248-.007-6.437.143-9.585 2.09-38.789 21.017-69.61 38.159-76.212-.182 3.541-.578 8.861-.729 15.47-6.372 16.411-14.984 39.159-16.404 59.307a128.089 128.089 0 0 0 .786 21.476c8.831 68.327 69.337 122.509 129.382 124.608z"/><path fill="#858C91" d="M164.098 301.49c29.743.371 27.579 23.166 2.372 20.143a260.01 260.01 0 0 1-16.82-2.791C64.128 300.578 15.362 246.214 14.369 165.948c-.038-3.237.01-6.42.162-9.509 2.194-39.43 21.376-69.333 37.928-75.3-.584 3.972-1.426 9.68-2.086 16.593-6.278 16.8-14.363 39.507-15.496 59.008-.266 7.137.056 14.252.953 21.265 9.258 68.455 70.521 121.803 128.268 123.485z"/><path fill="#818A8F" d="M163.131 301.742c29.992.271 26.756 22.779 1.551 19.225a284.687 284.687 0 0 1-16.656-3.041c-84.721-19.089-132.284-72.13-133.023-152.26-.038-3.189.021-6.319.198-9.403 2.281-40.071 21.701-69.045 37.648-74.395-.955 4.385-2.24 10.522-3.396 17.748-6.192 17.204-13.745 39.864-14.587 58.7-.22 7.091.179 14.133 1.117 21.071 9.654 68.57 71.691 121.073 127.148 122.355z"/><path fill="#7F878C" d="M162.169 301.955c30.234.188 25.921 22.453.719 18.34a268.392 268.392 0 0 1-16.487-3.287C62.483 297.07 16.138 245.39 15.627 165.407c-.009-3.167.058-6.279.228-9.297 2.401-40.706 22.064-68.798 37.4-73.506-1.344 4.813-3.082 11.345-4.726 18.895-6.108 17.588-13.124 40.225-13.681 58.4-.143 7.038.3 14.01 1.266 20.84 10.106 68.706 72.884 120.386 126.055 121.216z"/><path fill="#7C8489" d="M161.204 302.185c30.499.094 25.072 22.129-.104 17.439a313.548 313.548 0 0 1-16.345-3.541C61.65 295.318 16.515 244.955 16.27 165.153c-.037-3.147.066-6.213.245-9.209 2.497-41.365 22.408-68.526 37.145-72.581a424.512 424.512 0 0 0-6.067 20.013c-6.016 17.999-12.489 40.589-12.775 58.095-.073 7.008.436 13.91 1.448 20.648 10.503 68.779 74.065 119.652 124.938 120.066z"/></g><path fill="#788186" d="M159.315 318.955c-92.74-19.283-142.421-69.328-142.421-154.071 0-47.285 22.029-77.124 37.194-80.79-6.903 18.346-19.285 54.611-19.285 78.971 0 79.218 72.172 139.355 125.428 139.355 30.735-.001 24.241 21.771-.916 16.535z" clip-path="url(#m)"/><linearGradient id="n" x1="2088.521" x2="1026.184" y1="-1846.127" y2="1687.543" gradientTransform="matrix(.0726 0 0 .0728 146.388 173.786)" gradientUnits="userSpaceOnUse"><stop offset="0" style="stop-color:#4c616c"/><stop offset=".27" style="stop-color:#4c616c"/><stop offset=".51" style="stop-color:#bacbde"/><stop offset=".91" style="stop-color:#bacbde"/><stop offset="1" style="stop-color:#829fc1"/></linearGradient><path fill="url(#n)" d="M224.632 8.817c-.076.065-.129.153-.188.241l-.283.729c53.689 16.782 113.961 63.797 113.961 138.104 0 64.56-44.936 139.218-152.752 148.474l.018 4.307c107.855-9.309 156.299-87.027 156.299-150.428 0-74.282-53.178-124.581-117.055-141.427z"/><path fill="#D6DDE4" d="M231.442 3.804c65.703 19.188 122.742 68.232 122.742 150.965 0 85.09-73.146 157.584-168.797 162.534l-.018 16.639c84.094 0 180.971-69.109 180.971-174.753 0-90.781-56.328-136.619-123.479-158.256-.846-.17-1.93-.059-2.686.059-1.26.178-2.943.572-4.871 1.161-1.338.469-2.95 1.168-3.862 1.651"/><linearGradient id="o" x1="1783.757" x2="1354.562" y1="-21.303" y2="-1873.607" gradientTransform="translate(144.995 169.999) scale(.0934)" gradientUnits="userSpaceOnUse"><stop offset="0" style="stop-color:#b3ccea"/><stop offset="1" style="stop-color:#7e9ec3"/></linearGradient><path fill="url(#o)" d="M224.632 8.817c63.877 16.846 117.055 67.145 117.055 141.426l12.498 4.525c0-82.732-57.039-131.776-122.742-150.965-3.065 1.437-5.524 3.55-6.811 5.014z"/><linearGradient id="p" x1="4958.484" x2="2049.273" y1="4813.549" y2="973.976" gradientTransform="matrix(.0726 0 0 .0728 127.58 173.791)" gradientUnits="userSpaceOnUse"><stop offset="0" style="stop-color:#fff"/><stop offset=".92" style="stop-color:#fff"/><stop offset=".929" style="stop-color:#edf3fa"/><stop offset=".946" style="stop-color:#d4e2f3"/><stop offset=".962" style="stop-color:#c1d6ee"/><stop offset=".98" style="stop-color:#b7ceeb"/><stop offset="1" style="stop-color:#b3ccea"/></linearGradient><path fill="url(#p)" d="M354.185 154.769c0 85.09-73.072 157.614-168.721 162.563v-16.654c107.826-9.291 156.223-87.033 156.223-150.434l12.498 4.525z"/><linearGradient id="q" x1="-968.585" x2="388.655" y1="-1483.151" y2="1630.986" gradientTransform="translate(143.689 171.18) scale(.0934)" gradientUnits="userSpaceOnUse"><stop offset="0" style="stop-color:#7192b4"/><stop offset=".48" style="stop-color:#8badd8"/><stop offset=".94" style="stop-color:#ccdff3"/><stop offset="1" style="stop-color:#eef3fa"/></linearGradient><path fill="url(#q)" d="M146.097 8.858C82.224 25.71 29.035 76.021 29.035 150.278c0 63.401 48.537 141.084 156.353 150.393v16.631c-95.64-4.949-168.682-77.443-168.682-162.534 0-82.732 56.856-131.724 122.564-150.918 2.382 1.107 5.388 3.301 6.827 5.008"/><linearGradient id="r" x1="-766.052" x2="-463.685" y1="-2190.508" y2="1696.343" gradientTransform="matrix(.0726 0 0 .0728 146.414 173.791)" gradientUnits="userSpaceOnUse"><stop offset="0" style="stop-color:#4c616c"/><stop offset=".91" style="stop-color:#98b2d2"/><stop offset="1" style="stop-color:#82a2c8"/></linearGradient><path fill="url(#r)" d="M32.617 147.955c0-74.313 60.232-121.321 113.916-138.119l-.286-.719a1.162 1.162 0 0 0-.149-.259C82.224 25.71 29.035 76.021 29.035 150.278c0 63.401 48.537 141.084 156.353 150.393l-.018-4.307C77.611 287.109 32.617 211.316 32.617 147.955z"/><defs><path id="s" d="m185.444 300.671.02 16.631h-.076l-.018 16.639c84.094 0 180.971-69.109 180.971-174.753 0-90.781-56.328-136.619-123.479-158.256-.846-.17-1.93-.059-2.686.059-1.26.178-2.943.572-4.871 1.161-1.34.471-2.951 1.17-3.863 1.652-3.064 1.437-5.523 3.549-6.811 5.014-.076.065-.129.153-.188.241l-.283.729c53.689 16.782 113.961 63.797 113.961 138.104 0 64.56-44.936 139.218-152.752 148.474l.075 4.305z"/></defs><clipPath id="t"><use xlink:href="#s" overflow="visible"/></clipPath><path fill="#E1E8F5" d="M224.548 8.93c16.063 4.242 31.209 10.52 45.041 18.682 14.285 8.421 26.85 18.652 37.266 30.409 11.016 12.333 19.533 26.185 25.357 41.166 6.186 15.935 9.324 33.098 9.324 51.057 0 16.099-3.178 33.01-9.227 48.891-6.525 17.1-16.086 32.764-28.441 46.508-13.453 15.006-29.797 27.25-48.611 36.395-20.68 10.051-44.189 16.271-69.869 18.5l.02.246c25.715-2.211 49.256-8.426 69.961-18.521 18.846-9.15 35.238-21.424 48.711-36.436 12.361-13.787 21.924-29.473 28.48-46.609 6.064-15.904 9.268-32.857 9.268-48.973 0-17.994-3.156-35.198-9.357-51.139-5.824-15.022-14.373-28.903-25.363-41.248-10.498-11.78-23.07-22.037-37.369-30.469-13.818-8.155-28.957-14.428-44.971-18.677-.07-.036-.289.188-.22.218z" clip-path="url(#t)"/><defs><path id="u" d="M231.536 3.851C297.231 23.045 354.1 72.037 354.1 154.769c0 85.09-73.063 157.584-168.713 162.534l-.018 16.639c84.094 0 181.039-69.057 181.039-174.689 0-90.799-56.289-136.631-123.461-158.262-.828-.164-1.725-.117-2.486.037-2.878.576-5.815 1.2-8.925 2.823"/></defs><clipPath id="v"><use xlink:href="#u" overflow="visible"/></clipPath><path fill="#D6DDE4" d="M183.874 342.501c107.877 0 186.934-95.162 186.934-182.403 0-32.121-22.039-103.726-70.711-103.726 10.1 10.086 38.102 43.608 38.102 91.582 0 65.867-44.541 137.496-152.771 148.41-28.811 2.907-55.726 46.137-1.554 46.137z" clip-path="url(#v)"/><g clip-path="url(#v)"><path fill="#CCD4DB" d="M184.709 341.609c107.153-.912 184.886-94.064 184.886-181.174 0-32.863-22.018-102.49-69.121-102.643 9.947 10.479 37.242 44.13 37.242 90.956 0 66.527-45.871 137.601-151.493 148-28.886 2.759-55.158 45.291-1.514 44.861z"/><path fill="#C6CED4" d="M185.579 340.755c106.424-1.813 182.826-93.018 182.826-180.002 0-33.582-22.041-101.214-67.535-101.562 9.813 10.881 36.332 44.649 36.332 90.369 0 67.156-47.176 137.689-150.168 147.562-29.007 2.631-54.61 44.487-1.455 43.633z"/><path fill="#C0C7CE" d="M186.39 339.884c105.717-2.719 180.822-91.945 180.822-178.802 0-34.322-22.057-99.955-65.961-100.496 9.652 11.286 35.434 45.185 35.434 89.774 0 67.792-48.49 137.76-148.857 147.139-29.1 2.502-54.06 43.663-1.438 42.385z"/><path fill="#B9C1C8" d="M187.242 338.996c105.007-3.629 178.753-90.863 178.753-177.625 0-35.018-22.041-98.667-64.348-99.366 9.502 11.686 34.525 45.702 34.525 89.191 0 68.393-49.791 137.844-147.559 146.688-29.168 2.358-53.465 42.813-1.371 41.112z"/><path fill="#B3BBC1" d="M188.091 338.125C292.372 333.6 364.767 248.352 364.767 161.7c0-35.734-22.023-97.4-62.721-98.276 9.35 12.056 33.619 46.225 33.619 88.58 0 69.051-51.109 137.942-146.26 146.264-29.261 2.204-52.905 42.005-1.314 39.857z"/><path fill="#ACB4BB" d="M188.925 337.253c103.559-5.453 174.66-88.715 174.66-175.248 0-36.459-22.049-96.137-61.135-97.184 9.162 12.47 32.715 46.756 32.715 87.963 0 69.716-52.436 138.06-144.953 145.839-29.369 2.101-52.342 41.173-1.287 38.63z"/><path fill="#A5AEB4" d="M189.776 336.396c102.85-6.361 172.566-87.641 172.566-174.054 0-37.184-22.018-94.884-59.521-96.102 9.045 12.852 31.84 47.274 31.84 87.375 0 70.322-53.746 138.13-143.656 145.398-29.461 1.93-51.78 40.354-1.229 37.383z"/><path fill="#9FA7AD" d="M190.625 335.531c102.126-7.285 170.528-86.604 170.528-172.878 0-37.898-22.029-93.599-57.945-94.999 8.885 13.24 30.953 47.81 30.953 86.779 0 70.952-55.08 138.202-142.361 144.952-29.557 1.798-51.216 39.54-1.175 36.146z"/><path fill="#99A0A6" d="M191.456 334.648c101.428-8.168 168.486-85.521 168.486-171.671 0-38.629-22.02-92.346-56.346-93.923 8.738 13.651 30.055 48.344 30.055 86.18 0 71.586-56.387 138.295-141.059 144.54-29.65 1.651-50.646 38.681-1.136 34.874z"/><path fill="#929AA0" d="M192.312 333.783c100.684-9.08 166.432-84.449 166.432-170.5 0-39.359-22.031-91.074-54.74-92.806 8.566 14.029 29.154 48.857 29.154 85.551 0 72.251-57.717 138.408-139.771 144.132-29.743 1.511-50.07 37.865-1.075 33.623z"/><path fill="#8C9499" d="M193.151 332.9c99.967-10.004 164.398-83.373 164.398-169.299 0-40.072-22.037-89.798-53.17-91.717 8.434 14.439 28.26 49.38 28.26 84.968 0 72.876-59.025 138.484-138.479 143.685-29.818 1.371-49.481 37.029-1.009 32.363z"/><path fill="#858D93" d="M194.012 332.041c99.231-10.908 162.339-82.291 162.339-168.116 0-40.783-22.037-88.546-51.576-90.641 8.266 14.835 27.354 49.904 27.354 84.368 0 73.509-60.336 138.583-137.154 143.261-29.933 1.254-48.933 36.2-.963 31.128z"/><path fill="#7F878C" d="M194.825 331.152c98.561-11.816 160.305-81.225 160.305-166.911 0-41.523-22.027-87.273-49.975-89.544 8.141 15.228 26.473 50.432 26.473 83.777 0 74.14-61.654 138.648-135.84 142.808-30.026 1.114-48.387 35.389-.963 29.87z"/><path fill="#798186" d="M195.694 330.287c97.813-12.715 158.225-80.172 158.225-165.721 0-42.242-22.035-86.003-48.367-88.445 7.979 15.6 25.576 50.939 25.576 83.15 0 74.793-62.986 138.76-134.554 142.401-30.113.972-47.821 34.552-.88 28.615z"/><path fill="#737B7F" d="M196.536 329.427c97.094-13.639 156.172-79.094 156.172-164.561 0-42.938-22.025-84.716-46.777-87.346 7.82 16.017 24.686 51.481 24.686 82.561 0 75.43-64.297 138.838-133.251 141.956-30.203.838-47.241 33.734-.83 27.39z"/><path fill="#6D7479" d="M197.377 328.55c96.378-14.539 154.132-78.023 154.132-163.374 0-43.666-22.02-83.438-45.174-86.226 7.666 16.394 23.77 51.975 23.77 81.954 0 76.042-65.594 138.92-131.944 141.514-30.291.691-46.686 32.917-.784 26.132z"/><path fill="#676E73" d="M198.216 327.687c95.66-15.451 152.072-76.967 152.072-162.174 0-44.407-22.027-82.19-43.545-85.155 7.488 16.77 22.854 52.51 22.854 81.342 0 76.695-66.912 139.025-130.633 141.103-30.383.552-46.134 32.073-.748 24.884z"/><path fill="#62686D" d="M199.069 326.816c94.949-16.371 150.029-75.889 150.029-160.986 0-45.113-22.049-80.925-41.986-84.085 7.357 17.188 21.99 53.063 21.99 80.767 0 77.335-68.238 139.095-129.363 140.662-30.46.417-45.539 31.279-.67 23.642z"/><path fill="#5B6266" d="M199.91 325.945c94.212-17.275 147.979-74.824 147.979-159.791 0-45.844-22.02-79.661-40.373-82.99 7.188 17.563 21.066 53.575 21.066 80.16 0 77.958-69.545 139.203-128.031 140.255-30.582.276-44.983 30.432-.641 22.366z"/><path fill="#555C60" d="M200.761 325.05c93.484-18.164 145.936-73.723 145.936-158.583 0-46.563-22.035-78.385-38.787-81.885 7.031 17.965 20.174 54.1 20.174 79.56 0 78.59-70.871 139.28-126.734 139.797-30.67.146-44.429 29.602-.589 21.111z"/></g><path fill="#4F5559" d="M201.603 324.203c92.773-19.088 143.891-72.67 143.891-157.425 0-47.278-22.045-77.129-37.199-80.79 6.873 18.365 19.275 54.635 19.275 78.967 0 79.219-72.184 139.36-125.428 139.36-30.764-.001-43.869 28.796-.539 19.888z" clip-path="url(#v)"/><path fill="#E0E0E0" d="M185.37 334.193c22.719 0 46.703-5.078 69.385-14.703 23.096-9.785 44.463-24.143 61.842-41.514 15.543-15.551 27.746-33.215 36.271-52.486 9.162-20.813 13.799-43.09 13.799-66.238 0-21.872-3.309-42.078-9.873-60.071-6.072-16.729-15.061-31.922-26.721-45.156-20.617-23.377-49.889-41.307-87.049-53.292a.267.267 0 0 0-.316.17.246.246 0 0 0 .164.318c37.078 11.951 66.285 29.839 86.799 53.116 11.619 13.229 20.6 28.368 26.68 45.002 6.496 17.936 9.805 38.111 9.805 59.913 0 25.232-5.531 49.38-16.422 71.74-10.07 20.619-24.355 39.137-42.479 55.018-16.926 14.84-37.053 27.037-58.221 35.24-20.924 8.131-42.943 12.42-63.664 12.42a.265.265 0 0 0-.267.271c.001.158.115.252.267.252z" clip-path="url(#v)"/><path fill="#E1E8F5" d="M146.042 8.711c-16.149 4.255-31.4 10.574-45.277 18.766-14.288 8.442-26.851 18.682-37.279 30.456C52.518 70.283 44 84.135 38.185 99.157c-6.194 15.952-9.331 33.15-9.331 51.121 0 16.159 3.224 33.094 9.291 49.002 6.524 17.125 16.121 32.816 28.517 46.604 28.483 31.697 69.546 50.715 118.725 54.947l.02-.354c-49.087-4.207-90.083-23.189-118.482-54.836-12.366-13.744-21.941-29.391-28.457-46.479-6.07-15.869-9.246-32.761-9.246-48.885 0-17.924 3.12-35.093 9.275-50.986C44.3 84.316 52.802 70.477 63.739 58.167c10.429-11.749 22.925-21.982 37.193-30.392 13.852-8.189 29.168-14.498 45.296-18.734l-.186-.33z"/><path fill="#E0E0E0" d="M234.485 10.912c16.686.259 26.951 2.766 43.555 13.057-16.875-.617-31.238-7.779-43.555-13.057z"/><linearGradient id="w" x1="1232.996" x2="1291.061" y1="-1911.163" y2="-1849.412" gradientTransform="translate(143.689 198.695) scale(.0934)" gradientUnits="userSpaceOnUse"><stop offset="0" style="stop-color:#2a383d"/><stop offset="1" style="stop-color:#8293a4"/></linearGradient><path fill="url(#w)" d="M278.04 23.969c-16.604-10.291-26.869-12.798-43.555-13.057 16.961 3.69 28.106 7.084 43.555 13.057z"/><linearGradient id="x" x1="1100.124" x2="1672.9" y1="-1796.386" y2="-1466.983" gradientTransform="translate(143.689 171.18) scale(.0934)" gradientUnits="userSpaceOnUse"><stop offset="0" style="stop-color:#7192b4"/><stop offset=".48" style="stop-color:#8badd8"/><stop offset=".94" style="stop-color:#ccdff3"/><stop offset="1" style="stop-color:#eef3fa"/></linearGradient><path fill="url(#x)" d="M279.214 16.008c5.861 10.392 16.678 20.33 29.639 29.732-5.37-12.98-7.875-18.441-29.639-29.732z"/><linearGradient id="y" x1="1465.879" x2="1783.246" y1="-1339.975" y2="-1021.677" gradientTransform="translate(143.689 142.979) scale(.0934)" gradientUnits="userSpaceOnUse"><stop offset="0" style="stop-color:#2a383d"/><stop offset="1" style="stop-color:#8293a4"/></linearGradient><path fill="url(#y)" d="M308.853 45.74c-8.494-10.567-17.443-21.219-29.639-29.732 5.861 10.391 16.678 20.33 29.639 29.732z"/><linearGradient id="z" x1="2128.554" x2="1828.672" y1="-1053.983" y2="-1211.297" gradientTransform="translate(143.689 171.18) scale(.0934)" gradientUnits="userSpaceOnUse"><stop offset="0" style="stop-color:#8eaac9"/><stop offset="1" style="stop-color:#e7eef8"/></linearGradient><path fill="url(#z)" d="M295.976 46.1c13.793 3.754 20.742 6.443 31.859 22.818-16.316-6.702-19.531-9.797-31.859-22.818z"/><linearGradient id="A" x1="1833.231" x2="1785.308" y1="-1419.995" y2="-1556.393" gradientTransform="translate(143.689 198.695) scale(.0934)" gradientUnits="userSpaceOnUse"><stop offset="0" style="stop-color:#2a383d"/><stop offset="1" style="stop-color:#8293a4"/></linearGradient><path fill="url(#A)" d="M295.976 46.1c9.094 4.695 20.732 12.733 31.859 22.818-11.117-16.375-18.066-19.064-31.859-22.818z"/><linearGradient id="B" x1="2036.479" x2="2058.601" y1="-1495.505" y2="-1377.523" gradientTransform="translate(143.689 198.695) scale(.0934)" gradientUnits="userSpaceOnUse"><stop offset="0" style="stop-color:#8eaac9"/><stop offset="1" style="stop-color:#e7eef8"/></linearGradient><path fill="url(#B)" d="M327.45 52.543c1.465 13.697 7.23 27.926 16.334 41.618-.244-13.957 1.063-25.243-16.334-41.618z"/><linearGradient id="C" x1="2049.819" x2="2086.714" y1="-964.042" y2="-1019.383" gradientTransform="translate(143.689 198.695) scale(.0934)" gradientUnits="userSpaceOnUse"><stop offset="0" style="stop-color:#8eaac9"/><stop offset="1" style="stop-color:#e7eef8"/></linearGradient><path fill="url(#C)" d="M326.599 84.328c15.049 11.274 21.393 20.589 24.059 38.194-8.618-9.189-15.673-16.622-24.059-38.194z"/><linearGradient id="D" x1="2078.804" x2="2095.403" y1="-1075.608" y2="-964.951" gradientTransform="translate(143.689 198.695) scale(.0934)" gradientUnits="userSpaceOnUse"><stop offset="0" style="stop-color:#2a383d"/><stop offset="1" style="stop-color:#8293a4"/></linearGradient><path fill="url(#D)" d="M326.599 84.328c11.543 13.393 17.654 23.632 24.059 38.194-2.667-17.605-9.011-26.919-24.059-38.194z"/><linearGradient id="E" x1="2258.499" x2="2306.881" y1="-44.296" y2="-296.319" gradientTransform="translate(143.689 171.18) scale(.0934)" gradientUnits="userSpaceOnUse"><stop offset="0" style="stop-color:#8eaac9"/><stop offset="1" style="stop-color:#e7eef8"/></linearGradient><path fill="url(#E)" d="M361.058 116.992c-2.268 9.396-4.813 11.815-5.625 19.07-.803 7.25-.531 20.554-.932 29.674 4.697-9.668 16.197-19.188 6.557-48.744z"/><linearGradient id="F" x1="2345.736" x2="2288.1" y1="-612.034" y2="-613.955" gradientTransform="translate(143.689 198.695) scale(.0934)" gradientUnits="userSpaceOnUse"><stop offset="0" style="stop-color:#2a383d"/><stop offset="1" style="stop-color:#8293a4"/></linearGradient><path fill="url(#F)" d="M355.433 136.063c-.803 7.25-.531 20.554-.932 29.674 5.574-18.518 7.299-31.516 6.557-48.744-2.268 9.396-4.813 11.815-5.625 19.07z"/><linearGradient id="G" x1="2180.429" x2="2150.035" y1="632.809" y2="130.54" gradientTransform="translate(143.689 142.979) scale(.0934)" gradientUnits="userSpaceOnUse"><stop offset="0" style="stop-color:#8eaac9"/><stop offset="1" style="stop-color:#e7eef8"/></linearGradient><path fill="url(#G)" d="M343.122 153.004c4.02 13.01 12.869 24.819 2.799 48.451-.527-11.147-8.434-18.125-2.799-48.451z"/><linearGradient id="H" x1="2166.981" x2="2198.123" y1="129.563" y2="642.769" gradientTransform="translate(143.689 142.979) scale(.0934)" gradientUnits="userSpaceOnUse"><stop offset="0" style="stop-color:#2a383d"/><stop offset="1" style="stop-color:#8293a4"/></linearGradient><path fill="url(#H)" d="M345.921 201.455c10.07-23.631 1.221-35.441-2.799-48.451 2.07 19.958 5.344 31.913 2.799 48.451z"/><linearGradient id="I" x1="1995.366" x2="2216.635" y1="662.053" y2="454.015" gradientTransform="translate(143.689 171.18) scale(.0934)" gradientUnits="userSpaceOnUse"><stop offset="0" style="stop-color:#8eaac9"/><stop offset="1" style="stop-color:#e7eef8"/></linearGradient><path fill="url(#I)" d="M362.142 195.281c-6.15 8.727-15.936 11.463-30.684 39.348 19.977-10.198 26.26-19.354 30.684-39.348z"/><linearGradient id="J" x1="2300.693" x2="2094.235" y1="159.456" y2="183.42" gradientTransform="translate(143.689 198.695) scale(.0934)" gradientUnits="userSpaceOnUse"><stop offset="0" style="stop-color:#2a383d"/><stop offset="1" style="stop-color:#8293a4"/></linearGradient><path fill="url(#J)" d="M331.458 234.628c15.904-14.834 24.201-24.484 30.684-39.348-6.151 8.727-15.936 11.464-30.684 39.348z"/><linearGradient id="K" x1="2006.102" x2="1944.093" y1="345.053" y2="324.384" gradientTransform="translate(143.689 198.695) scale(.0934)" gradientUnits="userSpaceOnUse"><stop offset="0" style="stop-color:#8eaac9"/><stop offset="1" style="stop-color:#e7eef8"/></linearGradient><path fill="url(#K)" d="M330.7 205.996c-6.342 11.896-9.104 18.5-10.25 22.377-1.17 3.836-1.842 19.619-2.619 22.949 8.91-10.133 10.281-17.352 11.17-21.371.906-4.037 2.162-15.1 1.699-23.955z"/><linearGradient id="L" x1="1968.344" x2="1924.036" y1="331.021" y2="318.098" gradientTransform="translate(143.689 198.695) scale(.0934)" gradientUnits="userSpaceOnUse"><stop offset="0" style="stop-color:#2a383d"/><stop offset="1" style="stop-color:#8293a4"/></linearGradient><path fill="url(#L)" d="M317.831 251.322c4.803-11.557 10.299-31.869 12.869-45.326-6.342 11.896-9.104 18.5-10.25 22.377-1.133 3.707-1.842 19.619-2.619 22.949.01 0 0 .006 0 0z"/><linearGradient id="M" x1="1621.169" x2="1565.408" y1="821.705" y2="790.107" gradientTransform="translate(143.689 198.695) scale(.0934)" gradientUnits="userSpaceOnUse"><stop offset="0" style="stop-color:#8eaac9"/><stop offset="1" style="stop-color:#e7eef8"/></linearGradient><path fill="url(#M)" d="M299.548 251.015c-8.395 7.873-13.375 12.705-17.396 18.977-4.025 6.25-5.188 13.557-9.385 19.736 22.5-12.521 22.943-26.727 26.781-38.713z"/><linearGradient id="N" x1="1922.405" x2="1818.962" y1="1325.785" y2="1288.841" gradientTransform="matrix(.0726 0 0 .0728 146.414 173.791)" gradientUnits="userSpaceOnUse"><stop offset="0" style="stop-color:#2a383d"/><stop offset="1" style="stop-color:#8293a4"/></linearGradient><path fill="url(#N)" d="M282.151 269.992c-4.025 6.25-5.188 13.557-9.385 19.736 9.234-8.902 19.541-24.578 26.781-38.713-8.394 7.873-13.374 12.705-17.396 18.977z"/><linearGradient id="O" x1="1676.39" x2="1849.639" y1="724.79" y2="746.907" gradientTransform="translate(143.689 198.695) scale(.0934)" gradientUnits="userSpaceOnUse"><stop offset="0" style="stop-color:#8eaac9"/><stop offset="1" style="stop-color:#e7eef8"/></linearGradient><path fill="url(#O)" d="M333.462 256.482c-7.006 3.148-13.797 4.266-21.008 7.426-7.234 3.166-16.098 11.904-21.453 15.447 19.195-1.285 33.176-7.439 42.461-22.873z"/><linearGradient id="P" x1="1258.852" x2="1211.797" y1="1741.158" y2="1699.056" gradientTransform="matrix(.0726 0 0 .0728 146.414 173.791)" gradientUnits="userSpaceOnUse"><stop offset="0" style="stop-color:#8eaac9"/><stop offset="1" style="stop-color:#e7eef8"/></linearGradient><path fill="url(#P)" d="M215.321 312.511c6.676-6.18 8.756-11.945 15.193-16.93 6.41-4.959 17.008-10.32 23.816-12.346-7.895 9.54-17.868 25.122-39.009 29.276z"/><linearGradient id="Q" x1="1209.81" x2="1152.563" y1="1696.089" y2="1636.354" gradientTransform="matrix(.0726 0 0 .0728 146.414 173.791)" gradientUnits="userSpaceOnUse"><stop offset="0" style="stop-color:#2a383d"/><stop offset="1" style="stop-color:#8293a4"/></linearGradient><path fill="url(#Q)" d="M215.321 312.511c16.574-9.049 23.898-19.477 39.01-29.275-6.809 2.025-17.406 7.387-23.816 12.346-6.438 4.984-8.518 10.75-15.194 16.929z"/><linearGradient id="R" x1="1034.758" x2="1317.755" y1="1439.514" y2="1421.982" gradientTransform="translate(143.689 171.18) scale(.0934)" gradientUnits="userSpaceOnUse"><stop offset="0" style="stop-color:#8eaac9"/><stop offset="1" style="stop-color:#e7eef8"/></linearGradient><path fill="url(#R)" d="M262.78 308.88c-14.352.947-16.885-1.535-23.844-1.611 20.896-8.35 24.629-8.99 49.549-7.385-8.154 6.448-16.078 8.239-25.705 8.996z"/><linearGradient id="S" x1="1611.727" x2="1596.907" y1="1752.615" y2="1638.994" gradientTransform="matrix(.0726 0 0 .0728 146.414 173.791)" gradientUnits="userSpaceOnUse"><stop offset="0" style="stop-color:#2a383d"/><stop offset="1" style="stop-color:#8293a4"/></linearGradient><path fill="url(#S)" d="M238.937 307.269c17.539-5.084 33.867-1.332 49.549-7.385-24.921-1.605-28.653-.965-49.549 7.385z"/><linearGradient id="T" x1="479.119" x2="714.506" y1="1559.512" y2="1598.407" gradientTransform="translate(143.689 171.18) scale(.0934)" gradientUnits="userSpaceOnUse"><stop offset="0" style="stop-color:#8eaac9"/><stop offset="1" style="stop-color:#e7eef8"/></linearGradient><path fill="url(#T)" d="M215.095 326.599c-13.878-1.043-22.783-6.691-28.648-8.969 13.908-1.289 27.728-2.295 36.439-.682 8.867 1.641 12.506 5.9 18.879 6.166-10.721 3.772-19.297 4.038-26.67 3.485z"/><linearGradient id="U" x1="942.641" x2="950.032" y1="1958.812" y2="1919.39" gradientTransform="matrix(.0726 0 0 .0728 146.414 173.791)" gradientUnits="userSpaceOnUse"><stop offset="0" style="stop-color:#2a383d"/><stop offset="1" style="stop-color:#8293a4"/></linearGradient><path fill="url(#U)" d="M186.446 317.63c18.359 2.135 33.754 5.361 55.318 5.484-6.373-.266-10.012-4.525-18.879-6.166-8.711-1.613-22.531-.607-36.439.682z"/><path fill="none" d="M345.876 200.447c-.953-10.527-8.111-17.975-2.857-46.943M361.671 195.916c-5.236 6.984-12.967 10.398-23.955 27.803M354.771 165.188c3.66-7.19 10.826-14.498 9.965-30.28"/><linearGradient id="V" x1="2434.03" x2="2023.598" y1="1255.275" y2="1383.075" gradientTransform="matrix(.0726 -.0004 .0004 .0728 146.352 173.9)" gradientUnits="userSpaceOnUse"><stop offset="0" style="stop-color:#2a383d"/><stop offset="1" style="stop-color:#8293a4"/></linearGradient><path fill="url(#V)" d="M291.001 279.355c11.135-6.145 27.502-9.893 42.461-22.873-7.006 3.148-13.797 4.266-21.008 7.426-7.234 3.166-16.098 11.904-21.453 15.447z"/><linearGradient id="W" x1="2076.796" x2="2047.304" y1="-1229.762" y2="-1368.002" gradientTransform="translate(143.689 198.695) scale(.0934)" gradientUnits="userSpaceOnUse"><stop offset="0" style="stop-color:#2a383d"/><stop offset="1" style="stop-color:#8293a4"/></linearGradient><path fill="url(#W)" d="M327.45 52.543c1.465 13.697 7.23 27.926 16.334 41.618-3.676-17.264-8.482-25.69-16.334-41.618z"/><radialGradient id="X" cx="-379.935" cy="-2123.314" r="247.83" fx="-323.296" fy="-1963.882" gradientTransform="translate(143.689 198.695) scale(.0934)" gradientUnits="userSpaceOnUse"><stop offset="0" style="stop-color:#7599bc"/><stop offset=".168" style="stop-color:#7ea0c0"/><stop offset=".453" style="stop-color:#99b2ce"/><stop offset=".82" style="stop-color:#c8d6e6"/><stop offset="1" style="stop-color:#e7eef8"/></radialGradient><path fill="url(#X)" d="M136.406 10.912c-16.677.259-26.954 2.766-43.557 13.057 16.867-.617 31.228-7.779 43.557-13.057z"/><linearGradient id="Y" x1="-235.916" x2="-353.911" y1="-1980.876" y2="-1929.252" gradientTransform="translate(143.689 198.695) scale(.0934)" gradientUnits="userSpaceOnUse"><stop offset="0" style="stop-color:#2a383d"/><stop offset="1" style="stop-color:#8293a4"/></linearGradient><path fill="url(#Y)" d="M92.849 23.969c16.604-10.291 26.88-12.798 43.557-13.057-16.649 3.848-28.099 7.084-43.557 13.057z"/><linearGradient id="Z" x1="-561.587" x2="-884.708" y1="-1364.656" y2="-1060.344" gradientTransform="translate(143.689 142.979) scale(.0934)" gradientUnits="userSpaceOnUse"><stop offset="0" style="stop-color:#2a383d"/><stop offset="1" style="stop-color:#8293a4"/></linearGradient><path fill="url(#Z)" d="M91.696 16.008C85.806 26.4 75.019 36.338 62.058 45.74c5.37-12.98 7.857-18.441 29.638-29.732z"/><linearGradient id="aa" x1="-667.33" x2="-703.539" y1="-1761.108" y2="-1788.034" gradientTransform="translate(143.689 198.695) scale(.0934)" gradientUnits="userSpaceOnUse"><stop offset="0" style="stop-color:#55728f"/><stop offset=".171" style="stop-color:#778faa"/><stop offset=".375" style="stop-color:#9eb1c7"/><stop offset=".49" style="stop-color:#aebed2"/><stop offset="1" style="stop-color:#d1e1f3"/></linearGradient><path fill="url(#aa)" d="M62.058 45.74c10.164-11.056 14.227-17.564 29.638-29.732-5.89 10.391-16.677 20.33-29.638 29.732z"/><radialGradient id="ab" cx="-999.36" cy="-1655.117" r="258.599" gradientTransform="translate(143.689 198.695) scale(.0934)" gradientUnits="userSpaceOnUse"><stop offset="0" style="stop-color:#7599bc"/><stop offset=".168" style="stop-color:#7ea0c0"/><stop offset=".453" style="stop-color:#99b2ce"/><stop offset=".82" style="stop-color:#c8d6e6"/><stop offset="1" style="stop-color:#e7eef8"/></radialGradient><path fill="url(#ab)" d="M74.915 46.1c-13.775 3.754-20.762 6.443-31.851 22.818 16.329-6.702 19.534-9.797 31.851-22.818z"/><linearGradient id="ac" x1="-897.575" x2="-925.43" y1="-1498.655" y2="-1537.652" gradientTransform="translate(143.689 198.695) scale(.0934)" gradientUnits="userSpaceOnUse"><stop offset="0" style="stop-color:#2a383d"/><stop offset="1" style="stop-color:#8293a4"/></linearGradient><path fill="url(#ac)" d="M74.915 46.1c-9.104 4.695-20.592 13.163-31.851 22.818C54.153 52.543 61.14 49.854 74.915 46.1z"/><linearGradient id="ad" x1="-4860.315" x2="-4681.61" y1="-4258.294" y2="-4191.282" gradientTransform="translate(154.533 181.642) scale(.0261)" gradientUnits="userSpaceOnUse"><stop offset="0" style="stop-color:#8eaac9"/><stop offset="1" style="stop-color:#e7eef8"/></linearGradient><path fill="url(#ad)" d="M43.451 52.543c-1.474 13.697-6.372 27.32-16.336 41.618.262-13.957-.066-24.884 16.336-41.618z"/><linearGradient id="ae" x1="-1169.624" x2="-1122.231" y1="-1345.305" y2="-1327.843" gradientTransform="translate(143.689 198.695) scale(.0934)" gradientUnits="userSpaceOnUse"><stop offset="0" style="stop-color:#2a383d"/><stop offset="1" style="stop-color:#8293a4"/></linearGradient><path fill="url(#ae)" d="M43.451 52.543c-1.474 13.697-7.337 27.908-16.336 41.618 4.689-19.194 9.898-26.42 16.336-41.618z"/><radialGradient id="af" cx="-1345.748" cy="-1180.447" r="285.851" fx="-1181.499" fy="-1130.674" gradientTransform="translate(143.689 198.695) scale(.0934)" gradientUnits="userSpaceOnUse"><stop offset="0" style="stop-color:#7599bc"/><stop offset=".168" style="stop-color:#7ea0c0"/><stop offset=".453" style="stop-color:#99b2ce"/><stop offset=".82" style="stop-color:#c8d6e6"/><stop offset="1" style="stop-color:#e7eef8"/></radialGradient><path fill="url(#af)" d="M44.387 84.352c-15.126 11.157-21.536 20.413-24.373 38.013 8.715-9.134 15.806-16.511 24.373-38.013z"/><linearGradient id="ag" x1="-1151.94" x2="-1262.56" y1="-1034.655" y2="-997.782" gradientTransform="translate(143.689 198.695) scale(.0934)" gradientUnits="userSpaceOnUse"><stop offset="0" style="stop-color:#2a383d"/><stop offset="1" style="stop-color:#8293a4"/></linearGradient><path fill="url(#ag)" d="M44.387 84.352c-8.348 8.945-22.444 31.752-24.373 38.013 2.837-17.6 9.247-26.856 24.373-38.013z"/><radialGradient id="ah" cx="-1223.088" cy="-638.667" r="284.688" gradientTransform="translate(143.689 198.695) scale(.0934)" gradientUnits="userSpaceOnUse"><stop offset="0" style="stop-color:#7599bc"/><stop offset=".168" style="stop-color:#7ea0c0"/><stop offset=".453" style="stop-color:#99b2ce"/><stop offset=".82" style="stop-color:#c8d6e6"/><stop offset="1" style="stop-color:#e7eef8"/></radialGradient><path fill="url(#ah)" d="M9.842 116.992c2.289 9.396 4.82 11.815 5.624 19.07.804 7.25.54 20.554.935 29.674-4.678-9.668-14.672-18.953-6.559-48.744z"/><linearGradient id="ai" x1="-1410.621" x2="-1353.577" y1="-612.955" y2="-616.844" gradientTransform="translate(143.689 198.695) scale(.0934)" gradientUnits="userSpaceOnUse"><stop offset="0" style="stop-color:#2a383d"/><stop offset="1" style="stop-color:#8293a4"/></linearGradient><path fill="url(#ai)" d="M15.466 136.063c.804 7.25.54 20.554.935 29.674-5.123-15.315-5.708-31.256-6.559-48.744 2.289 9.396 4.821 11.815 5.624 19.07z"/><radialGradient id="aj" cx="-1399.855" cy="-228.067" r="255.066" gradientTransform="translate(143.689 198.695) scale(.0934)" gradientUnits="userSpaceOnUse"><stop offset="0" style="stop-color:#7599bc"/><stop offset=".168" style="stop-color:#7ea0c0"/><stop offset=".453" style="stop-color:#99b2ce"/><stop offset=".82" style="stop-color:#c8d6e6"/><stop offset="1" style="stop-color:#e7eef8"/></radialGradient><path fill="url(#aj)" d="M27.785 153.004c-4.008 13.01-12.858 24.819-2.806 48.451.538-11.147 8.424-18.125 2.806-48.451z"/><linearGradient id="ak" x1="-1238.879" x2="-1298.642" y1="-230.544" y2="-228.054" gradientTransform="translate(143.689 198.695) scale(.0934)" gradientUnits="userSpaceOnUse"><stop offset="0" style="stop-color:#2a383d"/><stop offset="1" style="stop-color:#8293a4"/></linearGradient><path fill="url(#ak)" d="M24.979 201.455c-10.052-23.631-1.202-35.441 2.806-48.451-.408 20.393-6.078 31.913-2.806 48.451z"/><linearGradient id="al" x1="-1290.58" x2="-1320.675" y1="477.714" y2="504.046" gradientTransform="translate(143.689 171.18) scale(.0934)" gradientUnits="userSpaceOnUse"><stop offset="0" style="stop-color:#8eaac9"/><stop offset="1" style="stop-color:#e7eef8"/></linearGradient><path fill="url(#al)" d="M8.773 195.281c6.154 8.727 15.94 11.463 30.679 39.348-19.968-10.198-26.265-19.354-30.679-39.348z"/><linearGradient id="am" x1="-1040.865" x2="-1095.336" y1="321.111" y2="331.015" gradientTransform="translate(143.689 198.695) scale(.0934)" gradientUnits="userSpaceOnUse"><stop offset="0" style="stop-color:#2a383d"/><stop offset="1" style="stop-color:#8293a4"/></linearGradient><path fill="url(#am)" d="M40.189 205.996c6.354 11.896 9.106 18.5 10.266 22.377 1.155 3.836 1.835 19.619 2.611 22.949-8.916-10.133-11.354-17.123-12.234-21.172-.909-4.02-1.078-15.299-.643-24.154z"/><radialGradient id="an" cx="-1189.605" cy="371.541" r="269.231" fx="-1105.213" fy="386.433" gradientTransform="translate(140.723 201.753) scale(.0934)" gradientUnits="userSpaceOnUse"><stop offset="0" style="stop-color:#7599bc"/><stop offset=".168" style="stop-color:#7ea0c0"/><stop offset=".453" style="stop-color:#99b2ce"/><stop offset=".82" style="stop-color:#c8d6e6"/><stop offset="1" style="stop-color:#e7eef8"/></radialGradient><path fill="url(#an)" d="M53.066 251.322c-6.657-10.016-8.803-32.734-12.877-45.326 6.354 11.896 9.106 18.5 10.266 22.377 1.118 3.707 1.836 19.619 2.611 22.949z"/><linearGradient id="ao" x1="-641.811" x2="-693.815" y1="775.018" y2="812.164" gradientTransform="translate(143.689 198.695) scale(.0934)" gradientUnits="userSpaceOnUse"><stop offset="0" style="stop-color:#2a383d"/><stop offset="1" style="stop-color:#8293a4"/></linearGradient><path fill="url(#ao)" d="M71.351 251.015c8.396 7.873 13.388 12.705 17.398 18.977 4.015 6.25 5.178 13.557 9.376 19.736-22.5-12.521-22.946-26.727-26.774-38.713z"/><radialGradient id="ap" cx="-874.628" cy="939.006" r="358.932" gradientTransform="translate(143.689 198.695) scale(.0934)" gradientUnits="userSpaceOnUse"><stop offset="0" style="stop-color:#7599bc"/><stop offset=".168" style="stop-color:#7ea0c0"/><stop offset=".453" style="stop-color:#99b2ce"/><stop offset=".82" style="stop-color:#c8d6e6"/><stop offset="1" style="stop-color:#e7eef8"/></radialGradient><path fill="url(#ap)" d="M88.749 269.992c4.015 6.25 5.178 13.557 9.376 19.736-5.228-3.449-21.479-28.338-26.774-38.713 8.396 7.873 13.388 12.705 17.398 18.977z"/><linearGradient id="aq" x1="-943.293" x2="-891.677" y1="892.879" y2="1110.399" gradientTransform="translate(143.689 171.18) scale(.0934)" gradientUnits="userSpaceOnUse"><stop offset="0" style="stop-color:#8eaac9"/><stop offset="1" style="stop-color:#e7eef8"/></linearGradient><path fill="url(#aq)" d="M37.43 256.482c7.052 3.125 13.84 4.184 21.064 7.338 7.223 3.125 16.138 11.805 21.526 15.305-19.202-1.167-33.214-7.245-42.59-22.643z"/><linearGradient id="ar" x1="-918.98" x2="-891.674" y1="764.436" y2="692.45" gradientTransform="translate(143.689 198.695) scale(.0934)" gradientUnits="userSpaceOnUse"><stop offset="0" style="stop-color:#2a383d"/><stop offset="1" style="stop-color:#8293a4"/></linearGradient><path fill="url(#ar)" d="M80.02 279.125c-11.183-6.09-26.441-10.287-42.59-22.643 7.052 3.125 13.84 4.184 21.064 7.338 7.222 3.125 16.138 11.805 21.526 15.305z"/><linearGradient id="as" x1="-127.659" x2="159.466" y1="1334.473" y2="1505.209" gradientTransform="translate(143.689 171.18) scale(.0934)" gradientUnits="userSpaceOnUse"><stop offset="0" style="stop-color:#2a383d"/><stop offset="1" style="stop-color:#8293a4"/></linearGradient><path fill="url(#as)" d="M155.587 312.511c-6.693-6.18-8.773-11.945-15.192-16.93-6.439-4.959-17.019-10.32-23.854-12.346 7.926 9.54 17.887 25.122 39.046 29.276z"/><radialGradient id="at" cx="-140.949" cy="1154.642" r="150.081" gradientTransform="translate(143.689 198.695) scale(.0934)" gradientUnits="userSpaceOnUse"><stop offset="0" style="stop-color:#7599bc"/><stop offset=".168" style="stop-color:#7ea0c0"/><stop offset=".453" style="stop-color:#99b2ce"/><stop offset=".82" style="stop-color:#c8d6e6"/><stop offset="1" style="stop-color:#e7eef8"/></radialGradient><path fill="url(#at)" d="M155.587 312.511c-14.248-7.844-22.603-18.705-39.046-29.275 6.835 2.025 17.415 7.387 23.854 12.346 6.419 4.984 8.499 10.75 15.192 16.929z"/><linearGradient id="au" x1="-387.332" x2="-394.875" y1="1059.543" y2="1189.67" gradientTransform="translate(143.689 198.695) scale(.0934)" gradientUnits="userSpaceOnUse"><stop offset="0" style="stop-color:#8eaac9"/><stop offset="1" style="stop-color:#e7eef8"/></linearGradient><path fill="url(#au)" d="M108.126 308.88c14.325.947 16.906-1.535 23.817-1.611-20.876-8.35-24.63-8.99-49.549-7.385 8.189 6.448 16.09 8.239 25.732 8.996z"/><linearGradient id="av" x1="-393.488" x2="-387.79" y1="1158.495" y2="1076.821" gradientTransform="translate(143.689 198.695) scale(.0934)" gradientUnits="userSpaceOnUse"><stop offset="0" style="stop-color:#2a383d"/><stop offset="1" style="stop-color:#8293a4"/></linearGradient><path fill="url(#av)" d="M131.943 307.269c-18.312-3.689-33.855-1.332-49.549-7.385 24.919-1.605 28.673-.965 49.549 7.385z"/><linearGradient id="aw" x1="140.264" x2="145.905" y1="1302.152" y2="1369.846" gradientTransform="translate(143.689 198.695) scale(.0934)" gradientUnits="userSpaceOnUse"><stop offset="0" style="stop-color:#8eaac9"/><stop offset="1" style="stop-color:#e7eef8"/></linearGradient><path fill="url(#aw)" d="M155.778 326.599c13.909-1.043 22.805-6.691 28.665-8.969-13.909-1.289-27.722-2.295-36.417-.682-8.879 1.641-12.518 5.9-18.881 6.166 10.712 3.772 19.297 4.038 26.633 3.485z"/><linearGradient id="ax" x1="143.625" x2="133.992" y1="1335.854" y2="1239.534" gradientTransform="translate(143.689 198.695) scale(.0934)" gradientUnits="userSpaceOnUse"><stop offset="0" style="stop-color:#2a383d"/><stop offset="1" style="stop-color:#8293a4"/></linearGradient><path fill="url(#ax)" d="M184.443 317.63c-18.341 2.135-33.752 5.361-55.299 5.484 6.363-.266 10.002-4.525 18.881-6.166 8.696-1.613 22.51-.607 36.418.682z"/><linearGradient id="ay" x1="-1301.828" x2="-1257.755" y1="190.572" y2="156.869" gradientTransform="translate(143.689 198.695) scale(.0934)" gradientUnits="userSpaceOnUse"><stop offset="0" style="stop-color:#2a383d"/><stop offset="1" style="stop-color:#8293a4"/></linearGradient><path fill="url(#ay)" d="M39.452 234.628c-9.568-9.586-24.647-23.102-30.679-39.348 6.154 8.727 15.94 11.464 30.679 39.348z"/><path fill="#86888B" d="M288.493 299.773c-24.711-1.602-28.443-1.061-49.615 7.371-.061.049-.137.154-.102.236.041.1.141.129.225.105 21.125-8.414 24.83-8.973 49.484-7.373.086.006.162-.07.174-.17a.173.173 0 0 0-.166-.169z"/><defs><path id="az" d="M291.001 279.355c11.82-5.686 23.875-6.975 42.461-22.873-7.006 3.148-13.797 4.266-21.008 7.426-7.234 3.166-16.098 11.904-21.453 15.447z"/></defs><clipPath id="aA"><use xlink:href="#az" overflow="visible"/></clipPath><path fill="#8B8D90" d="M333.339 256.207c-3.535 1.594-7.092 2.699-10.523 3.758-3.41 1.037-6.91 2.125-10.48 3.701-4.703 2.055-10.008 6.379-14.686 10.197-2.527 2.055-4.898 4.014-6.799 5.25l-.227.158.313.479.236-.166c1.92-1.26 4.303-3.213 6.854-5.262 4.646-3.793 9.918-8.096 14.543-10.145 3.523-1.535 7.031-2.611 10.408-3.658 3.451-1.078 7.012-2.178 10.625-3.783l.268-.123-.26-.52-.272.114z" clip-path="url(#aA)"/><path fill="#CDCFD0" d="m350.808 122.388-.119-.141c-8.707-9.25-15.57-16.576-23.93-37.983-.029-.1-.145-.146-.227-.105a.216.216 0 0 0-.145.246c8.396 21.496 15.291 28.827 24.006 38.118l.143.137c.057.059.186.059.271 0 .042-.059.042-.179.001-.272z"/><defs><path id="aB" d="M327.45 52.543c1.465 13.697 7.23 27.926 16.334 41.618-.244-13.957 1.063-25.243-16.334-41.618z"/></defs><clipPath id="aC"><use xlink:href="#aB" overflow="visible"/></clipPath><path fill="#DEE8F6" d="m344.284 94.161-.072-3.213c-.086-12.615-.229-23.52-16.424-38.759l-.672.688c15.902 14.98 16.018 25.685 16.148 38.076l.049 3.219.971-.011z" clip-path="url(#aC)"/><path fill="#C1C2C4" d="M327.921 68.736c-16.205-6.655-19.4-9.681-31.813-22.783a.18.18 0 0 0-.256 0c-.076.076-.086.188 0 .27 12.441 13.169 15.645 16.194 31.936 22.867.074.053.189 0 .227-.089a.209.209 0 0 0-.094-.265z"/><path fill="#95979A" d="M82.43 300.072c24.647-1.611 28.344-1.059 49.477 7.355.075.053.17 0 .207-.082.029-.094 0-.201-.094-.236-21.178-8.449-24.903-8.99-49.625-7.402-.086.018-.17.096-.142.189a.174.174 0 0 0 .177.176z"/><path fill="#888A8C" d="M129.155 323.291c3.28-.141 5.805-1.299 8.725-2.66 2.75-1.295 5.842-2.705 10.184-3.5 8.792-1.648 22.785-.57 36.368.658.104 0 .183-.07.183-.152 0-.1-.055-.188-.154-.193-13.611-1.219-27.624-2.291-36.471-.678-4.37.807-7.509 2.271-10.249 3.547-2.887 1.338-5.392 2.49-8.604 2.648-.094 0-.17.072-.17.154a.184.184 0 0 0 .188.176zM242.028 323.291c-3.27-.141-5.803-1.299-8.734-2.66-2.725-1.295-5.834-2.705-10.166-3.5-8.811-1.648-22.814-.57-36.379.658-.076 0-.168-.07-.168-.152a.16.16 0 0 1 .141-.193c13.592-1.219 27.616-2.291 36.484-.678 4.365.807 7.479 2.271 10.25 3.547 2.889 1.338 5.387 2.49 8.594 2.648.094 0 .18.072.18.154-.02.111-.098.176-.202.176z"/><path fill="#8FA1B1" d="M9.672 117.021c1.039 4.254 2.115 7.066 3.063 9.556 1.143 2.966 2.115 5.537 2.551 9.503.493 4.431.597 11.251.67 17.781.057 4.125.126 8.361.277 11.875 0 .106.074.188.167.183.095 0 .192-.089.192-.183-.171-3.537-.227-7.762-.286-11.875-.074-6.56-.169-13.351-.68-17.822-.427-4.007-1.436-6.584-2.563-9.58-.955-2.459-2.033-5.289-3.042-9.496-.041-.113-.125-.154-.222-.143-.099.03-.147.113-.127.201z"/><path fill="#86888B" d="M37.353 256.613c3.584 1.617 7.178 2.693 10.627 3.734 3.386 1.02 6.884 2.078 10.438 3.631 4.631 2.008 9.954 6.279 14.635 10.051 2.542 2.049 4.943 3.988 6.853 5.242.066.041.198.012.238-.064a.164.164 0 0 0-.04-.236c-1.9-1.229-4.292-3.164-6.845-5.207-4.688-3.795-10.021-8.084-14.702-10.109-3.573-1.547-7.072-2.6-10.482-3.643-3.443-1.035-7.018-2.111-10.591-3.699-.076-.035-.169 0-.226.094-.018.087.001.188.095.206z"/><path fill="#888A8C" d="M8.64 195.386c1.93 2.73 4.254 4.926 6.932 7.432 5.747 5.379 13.633 12.77 23.71 31.887.037.088.149.105.226.076.095-.047.113-.152.076-.234-10.116-19.158-18.01-26.568-23.787-31.963-2.667-2.531-4.955-4.678-6.893-7.404-.045-.088-.16-.088-.236-.047-.074.075-.094.189-.028.253z"/><path fill="#B7B9BC" d="M43.291 52.52C41.72 66.947 36.39 80.563 26.972 94.056c-.047.088-.037.199.058.247.076.059.17.047.226-.042 9.454-13.563 14.807-27.195 16.375-41.706 0-.077-.066-.171-.158-.201-.098 0-.182.071-.182.166z"/><path fill="#FFF" d="M231.46 3.945c35.104 10.227 64.809 28.062 85.93 51.592 11.611 12.916 20.611 27.545 26.736 43.473 6.563 17.094 9.891 35.846 9.891 55.759 0 20.847-4.334 41.213-12.896 60.532-8.322 18.805-20.271 35.826-35.549 50.686-31.492 30.613-74.141 48.779-120.107 51.15a.147.147 0 0 0-.148.184c0 .088.072.17.168.152 46.035-2.379 88.773-20.584 120.324-51.246 15.309-14.881 27.295-31.945 35.619-50.785 8.58-19.383 12.932-39.777 12.932-60.672 0-19.96-3.322-38.771-9.92-55.9-6.164-15.958-15.154-30.615-26.785-43.565-21.156-23.561-50.949-41.432-86.109-51.675-.084-.042-.219.111-.244.205-.041.081.062.081.158.11z"/><path fill="#FFF" d="M185.407 317.136c-45.957-2.371-88.597-20.537-120.097-51.15-15.241-14.859-27.22-31.881-35.539-50.686-8.555-19.318-12.877-39.685-12.877-60.532 0-19.89 3.329-38.624 9.89-55.723C32.9 83.123 41.892 68.519 53.481 55.602c21.093-23.5 50.79-41.348 85.827-51.586.094-.041.264 0 .227-.1-.019-.083-.418-.194-.493-.194C104.015 13.99 74.33 31.848 53.226 55.367c-11.619 12.95-20.627 27.621-26.764 43.566-6.579 17.105-9.928 35.893-9.928 55.835 0 20.896 4.37 41.29 12.935 60.672 8.329 18.84 20.307 35.904 35.586 50.785 31.577 30.68 74.299 48.867 120.333 51.264.096 0 .191-.076.191-.17 0-.095-.078-.171-.172-.183z"/><linearGradient id="aD" x1="1318.997" x2="388.309" y1="932.63" y2="708.12" gradientTransform="translate(143.689 142.972) scale(.0934)" gradientUnits="userSpaceOnUse"><stop offset="0" style="stop-color:#c2d5ee"/><stop offset=".48" style="stop-color:#b9cce4"/><stop offset=".83" style="stop-color:#788ea3"/></linearGradient><path fill="url(#aD)" d="M185.464 246.449c24.638-5.348 55.498-15.115 80.477-25.848 3.09-1.324 5.389-3.361 7.25-5.973v-19.037l-87.727-20.893v71.751z"/><linearGradient id="aE" x1="1883.013" x2="-439.99" y1="-800.593" y2="312.977" gradientTransform="matrix(.0726 0 0 .0728 146.414 173.786)" gradientUnits="userSpaceOnUse"><stop offset="0" style="stop-color:#a8c2e5"/><stop offset=".44" style="stop-color:#95b7e1"/><stop offset=".66" style="stop-color:#d1e1f3"/><stop offset="1" style="stop-color:#b6cbe7"/></linearGradient><path fill="url(#aE)" d="M231.364 112.778h50.418l6.525-10.696h-58.75v29.839h-43.131v-29.839h-1.853v21.44H96.451l.644 1.119s.019.153.019.429h87.46v15.152h-87.3v1.595h87.3v20.112H97.501c.037.5.037 1.047.037 1.564h42.64v28.763H97.995v.047c.13 4.178.547 7.836 1.417 10.984h40.822v9.797h-34.536c1.615 1.189 3.563 2.154 5.853 2.855 9.266 2.834 20.005 5.766 30.214 8.379v-30.51l42.809-.059v39.859c.188 0 .378.035.552.076.302-.047 1.002-.105 1.301-.152V202.3h86.111c.115-.482.229-1.082.305-1.582h-86.416v-15.023h87.387c0-.5.031-1.281.037-1.807h-87.424v-20.394h87.699c.02-.518.037-1.17.037-1.67h-42.799v-28.397h43.102c.051-5.355.086-8.785.086-8.785l1.512-2.478h-44.699v-9.386z"/><path fill="#6C7479" d="m268.585 205.531-80.172 25.584-2.439 2.99v-32.287h87.177z"/><path fill="#D6E1F0" d="m188.413 231.115 80.172-25.584 4.566-3.713-.15.623c-1.777 7.486-5.834 11.852-12.756 13.965-23.037 7.043-55.918 14.928-73.723 17.6l-.549.1 2.44-2.991zM103.344 186.966l37.324-23.96v29.716h-43.13z"/><path fill="#6C7479" d="m103.344 186.966-5.806 5.756-.037-.453c-.114-4.332-.272-14.01-.455-28.775v-.488h43.621l-37.323 23.96z"/><path fill="#D6E1F0" d="m182.211 196.664 2.866-3.377v40.865l-.541-.076c-9.843-1.443-25.358-4.842-42.59-9.238l-.351-.123 40.616-28.051z"/><path fill="#6C7479" d="m182.211 196.664-40.616 28.05v-31.427h43.482z"/><path fill="#D6E1F0" d="m106.513 210.816 31.283-5.408 2.919-2.614v10.78h-35.017z"/><path fill="#6C7479" d="m137.796 205.408-31.283 5.408-.814 2.758h-.179l-.113-.094c-3.122-2.318-5.221-5.596-6.469-10.057l-.151-.629H140.715l-2.919 2.614zM183.479 143.152l-81.743 15.447-4.689 3.825v-.494l-.247-20.113v-.47h88.277z"/><path fill="#D6E1F0" d="m101.736 158.599 81.743-15.447 1.598-1.805V162.424H97.047zM189.569 129.002l36.832-23.278 3.643-4.136v30.833h-44.07z"/><path fill="#6C7479" d="m226.401 105.724-36.832 23.278-3.595 3.419v-30.833h44.07z"/><path fill="#D6E1F0" d="m182.79 126.742 2.287-2.148v16.117H96.8z"/><path fill="#6C7479" d="M182.79 126.742 96.8 140.711l-.017-.488-.151-15.153v-.476h88.445z"/><path fill="#D6E1F0" d="m97.578 121.682 85.454-17.829 2.045-2.265v22.418H96.196z"/><path fill="#6C7479" d="m183.032 103.853-85.454 17.829-1.382 2.324-.15-.235-13.104-21.443-.435-.74h102.57zM269.493 138.682l-34.336 20.07-4.283 3.561V132.95H274.958z"/><path fill="#D6E1F0" d="m235.157 158.752 34.336-20.07 5.465-5.732v.477l-.33 28.409v.477H230.874z"/><path fill="#6C7479" d="m277.255 114.974-43.725 5.702-2.656 1.983V112.285h51.166z"/><path fill="#D6E1F0" d="m233.53 120.676 43.725-5.702 4.785-2.689-.443.747-5.713 9.397-.149.23H230.874z"/><path fill="#6C7479" d="m269.737 188.496-81.265 10.398-2.498 2.289v-15.959h88.324z"/><path fill="#D6E1F0" d="m188.472 198.894 81.266-10.398 4.561-3.271v.471l-.135 6.627c-.092 3.27-.359 6.031-.838 8.479l-.068.383h-87.283l2.497-2.291z"/><path fill="#6C7479" d="m271.876 165.624-82.951 16.004-2.951 2.743v-21.365h88.654z"/><path fill="#D6E1F0" d="m188.925 181.628 82.951-16.004 2.752-2.618-.021.488c-.09 8.455-.215 15.329-.281 20.408l-.01.469H185.974l2.951-2.743z"/><path fill="#6C7479" d="m227.716 144.623-38.659 6.214-3.083 2.726v-10.922h44.07z"/><path fill="#D6E1F0" d="m189.057 150.837 38.659-6.214 2.328-1.982v10.922h-44.07zM143.355 181.687l39.753-6.813 1.969-2.282v10.892h-43.518z"/><path fill="#6C7479" d="m183.108 174.874-39.753 6.813-1.796 1.797v-10.892h43.518z"/><linearGradient id="aF" x1="1167.084" x2="2509.519" y1="606.207" y2="606.207" gradientTransform="matrix(.0726 0 0 .0728 146.414 173.786)" gradientUnits="userSpaceOnUse"><stop offset="0" style="stop-color:#d4b170"/><stop offset="1" style="stop-color:#e6cb90"/></linearGradient><path fill="url(#aF)" d="M186.427 233.535c16.604-2.484 49.516-10.211 73.678-17.594 7.156-2.174 10.789-6.686 12.434-13.641h-86.111v31.235z"/><linearGradient id="aG" x1="-688.905" x2="503.374" y1="56.182" y2="56.182" gradientTransform="matrix(.0726 0 0 .0728 146.414 173.786)" gradientUnits="userSpaceOnUse"><stop offset="0" style="stop-color:#ed1c2e"/><stop offset="1" style="stop-color:#dd7c6d"/></linearGradient><path fill="url(#aG)" d="M140.178 163.494h-42.64c.151 12.17.305 23.761.457 28.763h42.184v-28.763z"/><linearGradient id="aH" x1="-.609" x2="439.797" y1="757.056" y2="757.056" gradientTransform="translate(143.689 142.972) scale(.0934)" gradientUnits="userSpaceOnUse"><stop offset="0" style="stop-color:#ed1c2e"/><stop offset="1" style="stop-color:#dd7c6d"/></linearGradient><path fill="url(#aH)" d="M142.067 193.751v30.615c16.716 4.271 32.354 7.73 42.507 9.244v-39.859h-42.507z"/><linearGradient id="aI" x1="-695.099" x2="496.338" y1="472.545" y2="472.545" gradientTransform="matrix(.0726 0 0 .0728 146.414 173.786)" gradientUnits="userSpaceOnUse"><stop offset="0" style="stop-color:#003876"/><stop offset="1" style="stop-color:#4e80c1"/></linearGradient><path fill="url(#aI)" d="M140.234 203.289H99.412c1.153 4.189 3.138 7.451 6.287 9.797h34.536v-9.797z"/><linearGradient id="aJ" x1="-698.74" x2="503.737" y1="-300.991" y2="-300.991" gradientTransform="matrix(.0726 0 0 .0728 146.414 173.786)" gradientUnits="userSpaceOnUse"><stop offset="0" style="stop-color:#d4b170"/><stop offset="1" style="stop-color:#e6cb90"/></linearGradient><path fill="url(#aJ)" d="M184.574 141.817h-87.3c.075 6.138.16 13.098.227 20.112h87.073v-20.112z"/><linearGradient id="aK" x1="908.958" x2="3372.704" y1="-780.003" y2="-780.003" gradientTransform="matrix(.0726 0 0 .0728 146.414 173.786)" gradientUnits="userSpaceOnUse"><stop offset="0" style="stop-color:#ed1c2e"/><stop offset="1" style="stop-color:#dd7c6d"/></linearGradient><path fill="url(#aK)" d="M186.427 102.082h43.131v29.839h-43.131z"/><linearGradient id="aL" x1="-890.424" x2="503.734" y1="-837.685" y2="-837.685" gradientTransform="matrix(.0726 0 0 .0728 146.414 173.786)" gradientUnits="userSpaceOnUse"><stop offset="0" style="stop-color:#d4b170"/><stop offset="1" style="stop-color:#e6cb90"/></linearGradient><path fill="url(#aL)" d="M184.574 102.082H83.358l13.093 21.44h88.123z"/><linearGradient id="aM" x1="909.188" x2="3371.498" y1="-359.343" y2="-359.343" gradientTransform="matrix(.0726 0 0 .0728 146.414 173.786)" gradientUnits="userSpaceOnUse"><stop offset="0" style="stop-color:#ed1c2e"/><stop offset="1" style="stop-color:#dd7c6d"/></linearGradient><path fill="url(#aM)" d="M231.364 161.824h42.799c.123-10.499.229-21.143.303-28.397h-43.102v28.397z"/><linearGradient id="aN" x1="990.273" x2="2774.535" y1="-773.551" y2="-773.551" gradientTransform="matrix(.0726 0 0 .0728 146.414 173.786)" gradientUnits="userSpaceOnUse"><stop offset="0" style="stop-color:#003876"/><stop offset="1" style="stop-color:#4e80c1"/></linearGradient><path fill="url(#aN)" d="M231.364 112.778v9.386h44.106l5.709-9.386z"/><path d="M186.427 200.718h86.416c.482-2.525.734-5.326.842-8.414.025-1.637.084-3.725.129-6.609h-87.387v15.023z"/><linearGradient id="aO" x1="1166.966" x2="2509.271" y1="-1.298" y2="-1.298" gradientTransform="matrix(.0726 0 0 .0728 146.414 173.786)" gradientUnits="userSpaceOnUse"><stop offset="0" style="stop-color:#d4b170"/><stop offset="1" style="stop-color:#e6cb90"/></linearGradient><path fill="url(#aO)" d="M186.427 183.888h87.424c.076-5.653.18-12.896.275-20.394h-87.699v20.394z"/><linearGradient id="aP" x1="-695.071" x2="495.912" y1="58.61" y2="58.61" gradientTransform="matrix(.0726 0 0 .0728 146.414 173.786)" gradientUnits="userSpaceOnUse"><stop offset="0" style="stop-color:#003876"/><stop offset="1" style="stop-color:#4e80c1"/></linearGradient><path fill="url(#aP)" d="M142.031 173.086h42.543v9.933h-42.543z"/><linearGradient id="aQ" x1="990.111" x2="2775.229" y1="-352.804" y2="-352.804" gradientTransform="matrix(.0726 0 0 .0728 146.414 173.786)" gradientUnits="userSpaceOnUse"><stop offset="0" style="stop-color:#003876"/><stop offset="1" style="stop-color:#4e80c1"/></linearGradient><path fill="url(#aQ)" d="M186.427 143.129h43.131v9.945h-43.131z"/><path d="M184.574 125.07h-87.46c.009 1.589.075 7.468.16 15.152h87.3V125.07z"/><linearGradient id="aR" x1="1167.042" x2="2509.325" y1="605.79" y2="605.79" gradientTransform="matrix(.0726 0 0 .0728 146.414 173.786)" gradientUnits="userSpaceOnUse"><stop offset="0" style="stop-color:#d4b170"/><stop offset="1" style="stop-color:#e6cb90"/></linearGradient><path fill="url(#aR)" d="M271.911 202.789c-1.775 6.867-5.48 10.727-11.955 12.711-22.748 6.941-55.108 14.721-73.035 17.486v-30.197h84.99z"/><path fill="#354961" d="M281.179 112.778h-49.815v9.386h.672v-8.708h49.143zM229.558 143.129h-43.131v9.945h.713v-9.279h42.418z"/><path fill="#A1524D" d="M229.558 102.082h-43.131v29.839h.713V102.77h42.418z"/><path fill="#7E7459" d="M184.574 102.082H83.358l13.093 21.44h.778L84.643 102.77h99.931zM184.574 141.817H97.229l.234 20.113h.757l-.246-19.401h86.6z"/><path fill="#A05752" d="M140.178 163.494H97.493l.443 28.763h.795l-.456-28.086h41.903z"/><path fill="#A1524D" d="M274.466 133.427h-43.102v28.397h.672v-27.709h42.43z"/><path fill="#355578" d="M184.574 173.086h-42.543v9.933h.691v-9.256h41.852z"/><path fill="#A05752" d="M184.614 193.751h-42.547v30.616l.683.187v-30.115h41.864z"/><path fill="#7E7459" d="M272.462 202.3h-86.035v31.311h.713v-30.598h85.322zM274.126 163.494h-87.699v20.394h.713v-19.717h86.986z"/><path fill="#355578" d="M99.412 203.289c.037.152.097.336.152.5l.073.195c1.061 3.529 3.518 6.873 6.223 9.102h1.115c-2.704-1.988-5.445-5.383-6.617-9.102h39.876v-.695H99.412z"/><path fill="#D6E1F0" d="M288.894 101.487c-2.748 5.331-7.496 13.416-13.406 22.748-.188 20.417-.689 54.981-.953 67.963-.277 13.934-4.375 21.445-13.229 24.289-8.611 2.801-58.883 16.281-75.767 17.793l.407-.559c18.557-2.102 66.578-15.1 75.145-17.875 8.523-2.773 12.469-10.068 12.76-23.648.266-13.017.777-47.669.947-68.07v-.07l.068-.1 13.176-21.631.852-.84"/><path fill="#697786" d="M288.894 101.487H82.261l.312.524 13.898 22.564c.17 20 .773 54.122 1.066 67.962.285 13.611 4.236 20.646 13.218 23.561 9.476 3.084 56.735 16.139 74.783 18.182h.077c18.57-2.102 66.701-15.139 75.301-17.939 8.842-2.861 12.934-10.346 13.246-24.291.268-12.993.779-47.556.938-67.968l13.471-22.088.323-.507zm-14.463 22.418V124c-.174 20.377-.703 55.028-.965 68.05-.293 13.576-4.219 20.865-12.766 23.643-8.572 2.777-56.59 15.781-75.121 17.889-18.041-2.043-65.123-15.059-74.604-18.141-8.773-2.85-12.461-9.492-12.754-22.908-.284-13.875-.908-48.074-1.068-68.05v-.083l-.057-.088-13.606-22.131h204.167l-13.189 21.624-.037.1z"/><path fill="none" d="m86.093 185.566.237 2.771c1.325 15.836 2.474 29.518 16.657 35.609 24.125 10.371 56.103 20.541 82.318 26.26v-.014a.744.744 0 0 1 .068.014c26.219-5.719 58.193-15.889 82.318-26.26 14.184-6.092 15.332-19.773 16.66-35.609l.234-2.771c1.301-14.964 3.26-51.723 3.594-58.222l16.979-29.726 3.186-5.679-6.455-.719-116.515-12.996L68.861 91.221l-6.458.719 3.191 5.679 16.97 29.715-.07.011c.347 6.498 2.298 43.257 3.599 58.221z"/><path fill="none" d="M290.774 21.252C276.01 12.463 259.852 5.518 243.012.089c-.844-.175-1.924-.057-2.697.055-1.262.177-2.938.587-4.875 1.162a38.168 38.168 0 0 0-3.613 1.521c-.047-.014-.098-.027-.146-.044-.088-.026-.227.118-.25.206-.006.021.01.021.01.034-2.951 1.423-5.303 3.426-6.596 4.858-.027.034-.072.071-.1.103-.029.034-.051.074-.078.108-.033.047-.07.088-.098.136l-.297.722c53.791 16.819 114.156 63.927 114.156 138.367 0 64.672-44.996 139.483-153.014 148.75C77.46 286.8 32.369 210.869 32.369 147.375c0-74.443 60.366-121.548 114.155-138.368l-.295-.721c-.017-.031-.037-.052-.054-.075a.11.11 0 0 0 .027-.011l-.19-.327c-.032.009-.062.02-.095.029-1.413-1.649-4.176-3.673-6.463-4.771.024-.014.056-.02.045-.051-.02-.092-.423-.206-.481-.192-.01.006-.022.006-.032.013-3.021-1.531-5.899-2.157-8.696-2.718-.772-.151-1.664-.217-2.5-.04C72.235 18.048 24.133 52.5 9.043 115.166a163.6 163.6 0 0 0-1.377 6.221 178.103 178.103 0 0 0-2.084 12.74 183.905 183.905 0 0 0-.669 6.535 195.098 195.098 0 0 0-.588 8.783 210.833 210.833 0 0 0-.215 9.25c0 9.353.835 18.379 2.289 27.126.31 1.932.647 3.859 1.023 5.781.121.596.239 1.189.364 1.781.346 1.621.694 3.24 1.086 4.838 3.138 12.781 7.761 24.816 13.585 36.059a170.24 170.24 0 0 0 12.848 20.953c6.889 9.594 14.702 18.416 23.23 26.416.598.563 1.204 1.111 1.809 1.66a181.319 181.319 0 0 0 4.022 3.598c.456.395.925.773 1.384 1.16a196.161 196.161 0 0 0 32.293 22.219 196.906 196.906 0 0 0 21.316 10.072 191.344 191.344 0 0 0 22.108 7.365c11.412 3.041 22.924 4.967 34.292 5.658 3.218.197 6.424.328 9.613.328v-.002l.033.002c84.25 0 181.375-69.182 181.375-175.015.002-68.232-31.742-111.118-76.006-137.442z"/></svg>