<svg xmlns="http://www.w3.org/2000/svg" viewBox="0 0 113 120">
  <g fill="none" fill-rule="evenodd">
    <path stroke="#1A1919" stroke-width="15.781" d="m92.0407 17.6484-35.236-7.8019-.1271-.0283-.127.0283-35.3186 7.8019-.5956.1314v67.2598l.3778.2529 35.3186 23.5672.3448.2312.3448-.2312 35.2361-23.5672.3779-.2529V17.7798z"/>
    <path fill="#F7F3EB" d="m56.6364.01-.1097.0231L11.5762 9.466l-.758.159v81.3034l.482.3046 44.9489 28.487.3873.2468v-2.4257L12.6583 89.6684v-78.267l43.978-9.2274V.01Zm45.0585 9.4559.7596.159v81.3018l-.482.3063-44.8458 28.487-.4388.2799-.0515-.0331v-2.4257l.0515.0298 43.9249-27.9026v-78.267l-43.925-9.239-.0514.0116V.01l.0515-.01.1612.0331L101.695 9.466Z"/>
    <path fill="#1A1919" d="M101.3636 10.5312 56.6885 1.0909l-44.7794 9.4403v79.8631l44.7794 28.5148 44.6751-28.5148z"/>
    <path fill="#AB252F" d="M1 58.9091h111.2727V31.6364H1z"/>
    <path stroke="#1B1B19" stroke-width="1.438" d="M1 58.9091h111.2727V31.6364H1z"/>
    <path fill="#FFFFFE" d="M12.579 47.5117h3.3138c-.1643 1.7712-1.5112 2.6668-3.2714 2.6668-2.6733 0-4.1235-2.4221-4.1235-4.8042 0-2.3405 1.3892-4.8442 4.0608-4.8442 1.6366 0 2.8174.9772 3.3764 2.4437l3.8525-1.588c-1.3468-2.87-3.8321-4.2949-7.0425-4.2949-5.0333 0-8.4724 3.2777-8.4724 8.2634 0 4.8242 3.4188 8.1002 8.3267 8.1002 2.6107 0 4.9096-.9155 6.4428-3.0113 1.3875-1.9127 1.5535-3.827 1.5942-6.066H12.579v3.1345Zm12.0748-10.4208h-4.0174v15.2727h9.8181v-3.8128h-5.8007zm6.8917 15.2727h4.3636V37.0909h-4.3636zM42.5056 37.091H37v15.2726h5.5056c4.1385 0 7.5853-3.3414 7.5853-7.6372 0-4.294-3.4258-7.6355-7.5853-7.6355m-.7532 11.9097h-.8715V40.454h.912c2.496 0 4.2583 1.539 4.2583 4.2725 0 2.9787-1.981 4.2742-4.2988 4.2742m12.3262-2.6325h3.6466v-3.363h-3.6466v-2.5513h4.7396v-3.363h-8.7273v15.2727h8.7273v-3.3613h-4.7396z"/>
    <g fill="#FFFFFE">
      <path d="M66.9399 49.567c-2.352 0-4.2458-1.9117-4.2458-4.3057 0-2.3721 1.8939-4.2823 4.2458-4.2823 1.046 0 2.0254.373 2.7433 1.0097l3.223-2.2394c-1.4807-1.648-3.6144-2.6577-5.9663-2.6577-4.464 0-8.1217 3.6674-8.1217 8.1697 0 4.5259 3.876 8.1932 8.1217 8.1932 2.3519 0 4.4856-1.0096 5.9663-2.6577l-3.223-2.241c-.7179.6383-1.6973 1.0113-2.7433 1.0113"/>
      <path d="M79.3155 37.0916c-4.464 0-8.1217 3.6674-8.1217 8.1697 0 4.5259 3.6577 8.1932 8.1217 8.1932 4.4856 0 8.1233-3.6673 8.1233-8.1932 0-4.5023-3.6377-8.1697-8.1233-8.1697m0 12.4755c-2.352 0-4.2458-1.9118-4.2458-4.3058 0-2.3721 1.8939-4.2823 4.2458-4.2823s4.269 1.9102 4.269 4.2823c0 2.394-1.9171 4.3058-4.269 4.3058m14.7725-2.2183h.0684l-.8495-1.6917-.8395 1.6716c-1.5724.089-3.3063.5124-5.0902 1.5136l5.9297-11.7514 5.9897 11.869c-.4997-.2973-2.4885-1.3893-5.2085-1.611m-8.8396 5.7102h4.3124l.936-1.8228h5.64l.916 1.8228h4.3107l-2.0454-4.0538c-7.7586-2.6006-14.0697 4.0538-14.0697 4.0538"/>
    </g>
    <path fill="#FFFFFE" d="M98.0909 37.0909v3.363h3.399v11.9097h4.1111V40.4539H109v-3.363zM56.6372 6.5455l-.7513 1.6595-1.7694.1463 1.3674 1.2191-.4036 1.7035 1.5964-.907 1.5174.907-.3806-1.7783 1.3428-1.1443-1.8304-.1918-.6887-1.614Zm-4.8273 1.9017.631 1.4808 1.6805.1756-1.2307 1.05.3493 1.6303-1.3922-.8306-1.4646.8306.3707-1.5653-1.2538-1.115 1.6212-.135.6886-1.5214Zm9.6529 0 .631 1.4808 1.6805.1756-1.2307 1.05.3476 1.6303-1.3922-.8306-1.463.8306.369-1.5653-1.2537-1.115 1.6228-.135.6887-1.5214Zm4.2786 2.344-.537 1.1898-1.2703.1072.9803.873-.29 1.2206 1.1434-.6502 1.089.6502-.2735-1.2727.9622-.8209-1.3098-.1398-.4943-1.1573Zm-18.2068 0-.5404 1.1898-1.267.1072.9787.873-.29 1.2206 1.145-.6502 1.0874.6502-.2702-1.2727.9605-.8209-1.313-.1398-.491-1.1573ZM33.2541 25.6314a2.8338 2.8338 0 0 1-.536.2969c-.1944.0834-.4066.146-.637.1893-.232.0418-.491.0642-.777.0642-.4336 0-.8366-.0706-1.2072-.2118-.3724-.1396-.6926-.3322-.9643-.5761a2.6465 2.6465 0 0 1-.6332-.8618c-.1511-.3321-.2267-.6868-.2267-1.0623v-.016c0-.3756.0756-.7286.2267-1.0576.153-.329.3634-.6178.6332-.8666.2717-.2487.5955-.4445.9715-.5873.3778-.1428.7934-.215 1.2503-.215.2752 0 .5271.0208.7556.061.2285.04.4353.0946.6206.1652.1853.0707.358.1557.5145.2568a3.277 3.277 0 0 1 .439.3306l-.8275.8521c-.2303-.1861-.466-.3322-.7052-.438-.2393-.1044-.5074-.1574-.806-.1574-.2465 0-.4767.0418-.6872.1284-.2123.085-.394.2022-.5451.353a1.6249 1.6249 0 0 0-.3544.5232c-.0846.199-.1277.4108-.1277.6371v.0144c0 .2263.0431.4397.1277.6403.0845.2022.2015.3772.3508.528.1493.1508.3292.2696.5397.3579.2105.0882.4425.1315.6962.1315.3382 0 .6243-.0545.8581-.1652.2321-.1108.4642-.2616.6962-.4526l.8276.7462c-.153.146-.3095.276-.4732.3916m2.655.5504v-5.4545h4.3234v1.0673h-3.0757v1.1072h2.7053v1.0673h-2.7053v1.1454h3.1159v1.0673zm10.7017 0-1.0817-1.7446h-.8728v1.7446h-1.1108v-5.4545h2.3078c.6007 0 1.0678.1593 1.4028.4764.3334.317.5009.7586.5009 1.3246v.015c0 .4415-.0999.8017-.2996 1.0789-.1982.2789-.4594.4814-.7821.6125l1.2338 1.9471h-1.2983Zm.0215-3.592c0-.259-.0769-.4549-.2305-.5844-.1537-.1295-.3672-.1942-.6423-.1942h-1.1032v1.5653h1.1247c.275 0 .484-.0697.6315-.2091.146-.1411.2198-.3287.2198-.561v-.0167Zm6.2197-.7554v4.3474h-1.1586v-4.3474h-1.6025v-1.1071h4.3636v1.1071zm4.0855 4.3474h1.5796v-5.4545h-1.5796zm5.3235-4.3719v1.1772h2.7329v1.0826H62.261v2.1121H61v-5.4545h4.3636v1.0826zm5.5866 4.3719h1.5775v-5.4545h-1.5775zm4.0615 0v-5.4545h4.3234v1.0673h-3.0774v1.1072h2.707v1.0673h-2.707v1.1454h3.1176v1.0673zm10.8443-1.6838a2.508 2.508 0 0 1-.5902.8575c-.2549.242-.559.4328-.9109.571-.3518.14-.7398.2091-1.1607.2091h-2.1078v-5.4083h2.1078c.4209 0 .8089.0691 1.1607.2057.3519.1366.656.3259.9109.5678.2548.242.452.5267.5902.8542.1381.326.2088.6798.2088 1.0616v.0148c0 .3819-.0707.7374-.2088 1.0666Zm-1.0342-1.0666c0-.237-.0394-.4559-.12-.6567-.0789-.2008-.189-.3736-.3305-.5168-.143-.1448-.314-.2567-.5146-.3357-.2005-.0807-.4209-.1202-.6625-.1202h-.9191v3.2605h.919c.2417 0 .462-.0395.6626-.1169.2006-.0773.3716-.1876.5146-.3324.1414-.1432.2516-.3127.3305-.5086.0806-.1959.12-.4148.12-.6567v-.0165ZM21.7273 63.871H32.465c6.3348 0 10.4155 3.2606 10.4155 8.8137v.0724c0 5.912-4.546 9.0293-10.774 9.0293h-3.4362v7.1662h-6.9431V63.871Zm10.2363 12.4692c2.4695 0 3.9739-1.2903 3.9739-3.2605v-.0724c0-2.1495-1.5044-3.2967-4.01-3.2967h-3.257v6.6296h3.2931ZM44.3849 63.871h11.8475c3.8292 0 6.478 1.004 8.1599 2.724 1.4682 1.432 2.2195 3.3675 2.2195 5.8396v.0724c0 3.8332-2.0403 6.3777-5.1543 7.7027l5.978 8.7429h-8.0184l-5.0458-7.5958H51.328v7.5958h-6.943V63.871Zm11.5253 12.0396c2.3626 0 3.7223-1.1471 3.7223-2.974v-.0725c0-1.97-1.432-2.974-3.7585-2.974h-4.546v6.0205h4.5822Zm11.9196.5728v-.0724c0-7.2007 5.7988-13.042 13.5295-13.042 7.7324 0 13.4589 5.7689 13.4589 12.9712v.0708c0 7.2023-5.7989 13.0435-13.5296 13.0435-7.7323 0-13.4588-5.7687-13.4588-12.971m19.9005 0v-.0725c0-3.6176-2.6125-6.7711-6.4417-6.7711-3.7946 0-6.3364 3.081-6.3364 6.7003v.0708c0 3.6193 2.6141 6.7728 6.4071 6.7728 3.8309 0 6.371-3.0811 6.371-6.7004"/>
  </g>
</svg>
