<?xml version="1.0" encoding="UTF-8" standalone="no"?>
<!-- Created with Inkscape (http://www.inkscape.org/) -->

<svg
   xmlns:dc="http://purl.org/dc/elements/1.1/"
   xmlns:cc="http://creativecommons.org/ns#"
   xmlns:rdf="http://www.w3.org/1999/02/22-rdf-syntax-ns#"
   xmlns:svg="http://www.w3.org/2000/svg"
   xmlns="http://www.w3.org/2000/svg"
   version="1.1"
   width="450"
   height="250"
   id="svg7357">
  <defs
     id="defs7359" />
  <metadata
     id="metadata7362">
    <rdf:RDF>
      <cc:Work
         rdf:about="">
        <dc:format>image/svg+xml</dc:format>
        <dc:type
           rdf:resource="http://purl.org/dc/dcmitype/StillImage" />
        <dc:title></dc:title>
      </cc:Work>
    </rdf:RDF>
  </metadata>
  <g
     transform="translate(-276.75158,-211.51816)"
     id="layer1">
    <g
       transform="matrix(6.8084011,0,0,-7.2870205,331.43907,232.56676)"
       id="g4180">
      <path
         d="m 0,0 c 0.019,0.026 0.096,0.294 0.486,0.328 0,0 0.196,0.013 0.422,-0.054 0,0 -0.129,-0.334 -0.658,-0.394 L -0.045,-0.148 0,0 z m 52.141,-15.257 c -0.134,-0.334 -0.703,-0.745 -1.367,-0.972 -0.699,-0.229 -2.173,-0.236 -2.926,0.011 0,0 -0.161,0.169 -0.68,0.328 -1.232,0.363 -1.634,0.614 -2.254,1.196 -0.442,0.403 -0.931,0.921 -1.395,1.408 -0.214,0.219 -0.722,0.721 -1.621,0.877 -0.928,0.158 -3.219,0.333 -4.066,0.638 -0.566,0.198 -1.248,0.58 -2.086,1.843 -0.405,0.605 -0.714,0.782 -1.298,1.152 0,0 0.447,-0.351 0.682,-0.779 0.334,-0.62 0.5,-1.063 0.682,-1.396 0.193,-0.336 0.403,-0.625 0.741,-0.896 0.415,-0.336 0.688,-0.409 1.161,-0.508 0.447,-0.088 1.988,-0.158 3.307,-0.205 1.298,-0.055 1.855,-0.454 2.258,-0.794 0.375,-0.312 0.967,-1.213 1.387,-1.583 0.556,-0.487 0.57,-0.5 1.217,-0.898 0.33,-0.204 0.618,-0.342 0.883,-0.435 0.603,-0.352 0.355,-0.959 0.355,-0.959 -0.175,-0.486 -0.79,-0.658 -1.508,-0.559 -1.08,0.097 -2.015,0.999 -2.799,1.645 -0.433,0.355 -0.594,0.535 -1.424,1.112 -1.267,0.881 -4.262,0.805 -4.262,0.805 l -2.183,0.018 c -4.257,-0.062 -5.816,3.359 -6.245,4.082 -0.148,0.248 -0.282,0.452 -0.415,0.616 -0.196,0.27 -1.269,1.663 -2.412,2.155 0,0 1.098,-0.95 0.983,-1.468 -0.229,0 -0.504,-0.011 -0.82,-0.024 -4.292,-0.124 -5.189,0.117 -5.87,0.253 -0.679,0.133 -1.805,0.471 -2.918,0.982 0,0 0.122,1.051 -0.318,1.928 0,0 3.543,-1.245 6.363,-0.89 0,0 -4.551,0.219 -7.391,2.477 0,0 0.7,-2.386 0.15,-3.391 0,0 -0.749,-1.817 -4.571,-0.604 0,0 -1.766,0.687 -3.13,0.687 0,0 -1.028,-0.044 -1.154,-0.577 0,0 -0.068,-0.255 0.202,-0.382 0,0 0.301,-0.084 0.154,-0.308 -0.23,-0.365 -0.55,-0.641 -0.873,-0.8 -1.068,0.048 -0.984,0.922 -0.984,0.922 0.02,0.313 0.123,0.529 0.208,0.74 0.677,1.496 3.031,1.717 3.031,1.717 2.511,0.248 5.141,-0.356 5.141,-0.356 -1.882,0.45 -2.525,0.779 -3.057,1.226 -0.73,0.602 -1.403,2.637 -1.403,2.637 -0.288,-0.999 0.07,-2.003 0.31,-2.522 -0.354,0.57 -0.868,1.05 -1.314,1.414 C 7.446,-2.77 5.767,-2.469 5.767,-2.469 5.285,-2.385 5.093,-1.883 5.093,-1.883 4.466,-0.734 3.764,-0.685 3.764,-0.685 4.112,-1.161 4.076,-1.81 4.076,-1.81 4.076,-3.006 2.53,-3.404 2.53,-3.404 1.376,-4.55 1.175,-4.529 0.95,-4.543 0.722,-4.556 0.56,-4.324 0.56,-4.324 c -0.077,0.106 0.045,0.205 0.045,0.205 0.2,0.125 0.379,0.279 0.379,0.279 1.126,0.907 1.284,1.366 1.192,1.991 -0.18,1.261 -1.201,1.168 -1.201,1.168 -0.477,0 -0.712,-0.363 -0.712,-0.363 -0.182,-0.219 -0.588,-0.903 -0.588,-0.903 -0.354,-0.587 -0.672,-0.501 -0.672,-0.501 -0.39,-0.026 -0.674,0.326 -0.674,0.326 l -0.04,0.039 c -0.287,0.31 -0.036,0.688 -0.036,0.688 0.473,0.843 1.3,0.924 1.406,0.934 0.119,0.005 0.493,0.029 0.493,0.029 0.937,0.071 1.537,0.958 1.537,0.958 -0.391,0.188 -1.084,0.089 -1.084,0.089 -0.688,-0.042 -0.868,-0.77 -0.868,-0.77 -0.583,-0.082 -0.559,0.369 -0.438,0.489 0.103,0.114 0.453,0.684 2.718,1.023 0,0 1.203,0.242 3.334,0.005 C 5.429,1.354 5.499,1.284 5.402,1.167 5.133,0.849 4.296,0.157 2.946,0.496 c 0,0 -0.021,-0.542 1.449,-0.805 0,0 1.321,-0.287 3.48,-2.014 0,0 -1.041,1.93 -2.856,2.524 0,0 -0.131,0.08 -0.015,0.205 0,0 0.859,0.766 2.371,0.688 0,0 4.997,-0.258 7.811,-3.188 0,0 -0.1,0.49 -0.526,1.196 l -0.038,0.145 c 0,0 0.038,0.125 0.521,0.029 0,0 1.787,-0.297 5.932,-1.81 0,0 3.101,-1.085 4.798,-1.788 2.543,-1.049 8.919,-3.632 12.946,-5.861 0.712,-0.39 3.712,-1.867 3.712,-1.867 2.24,-1.39 4.304,-2.395 4.304,-2.395 2.022,-0.935 3.501,-0.505 3.501,-0.505 0.468,0.177 1.366,0.659 1.72,0.318 0.18,-0.18 0.184,-0.408 0.085,-0.625 m 0.501,0.781 c -0.255,0.617 -1.115,0.466 -1.115,0.466 -0.393,-0.021 -0.881,-0.435 -1.572,-0.57 -1.466,-0.305 -2.59,0.195 -2.59,0.195 -2.18,0.969 -3.644,2.026 -4.6,2.569 -0.96,0.552 -4.497,2.404 -8.03,4.181 0,0 -4.052,2.076 -10.051,4.548 0,0 -11.563,5.238 -19.884,5.238 0,0 -4.314,0.06 -5.771,-1.603 0,0 -0.26,-0.211 -0.135,-0.472 l -0.036,-0.122 c 0,0 -0.641,-0.42 -1.164,-1.024 0,0 -0.279,-0.286 -0.058,-0.714 0,0 0.278,-0.484 0.451,-0.69 0.187,-0.207 0.541,-0.567 1.086,-0.514 0.237,0.024 0.24,0.083 0.24,0.083 0.25,-0.252 0.683,-0.271 0.683,-0.271 -0.041,0.161 -0.204,0.464 -0.22,0.642 -0.014,0.196 0.061,0.388 0.061,0.388 0.094,0.211 0.262,0.487 0.432,0.62 0.155,0.117 0.539,0.245 0.821,0.044 0.227,-0.156 0.471,-0.664 0.2,-1.347 0,0 -0.313,-0.529 -0.596,-0.591 L 0.718,-3.425 c -0.165,0.005 -0.529,0.208 -0.529,0.208 0,0 -0.016,-0.04 0.025,-0.225 0.022,-0.103 0.055,-0.22 0.086,-0.31 L 0.224,-3.816 c 0,0 -0.23,-0.178 -0.128,-0.448 0,0 0.227,-0.839 0.847,-0.839 0.549,-0.013 1.005,0.505 1.005,0.505 C 3.132,-3.327 4.8,-3.152 4.8,-3.152 6.646,-3.027 9.277,-4.916 9.997,-5.459 7.264,-5.426 6.162,-6.48 6.162,-6.48 4.629,-7.672 5.223,-9.115 5.223,-9.115 c 0.105,-0.31 0.425,-0.542 0.632,-0.633 0.285,-0.122 0.528,-0.13 0.748,-0.104 0.166,0.018 0.345,0.078 0.43,0.141 0.214,0.123 0.587,0.367 0.767,0.625 0.118,0.132 0.242,0.448 0.159,0.752 0,0 -0.051,0.242 0.176,0.294 0,0 0.718,0.185 2.183,-0.466 0,0 1.586,-0.919 3.648,-1.101 0,0 2.342,-0.245 2.908,1.028 0,0 1.346,-0.552 3.319,-0.778 0,0 1.913,-0.198 5.03,0.039 0.615,0.047 1.337,-0.007 1.337,-0.007 0.991,-0.116 1.626,-0.634 1.879,-1.042 1.016,-1.654 2.24,-4.9 7.218,-4.768 l 2.263,0.06 c 1.367,0 2.484,-0.016 3.577,-0.596 0.479,-0.253 1.747,-1.511 2.528,-1.937 2.3,-1.549 3.64,-0.827 3.64,-0.827 0.789,0.457 0.723,1.266 0.53,1.727 -0.237,0.073 2.854,-0.456 4.182,1.271 0.307,0.391 0.363,0.745 0.265,0.961"
         id="path4182"
         style="fill:#231f20;fill-opacity:1;fill-rule:nonzero;stroke:none" />
    </g>
    <g
       transform="matrix(6.8084011,0,0,-7.2870205,560.4873,427.16664)"
       id="g4184">
      <path
         d="m 0,0 c -0.394,-1.603 -1.609,-2.284 -3.643,-2.284 -1.378,0 -2.59,0.281 -3.217,0.903 -0.675,0.664 -0.778,1.578 -0.778,2.558 l 0,4.793 1.546,0 0,-4.717 c 0,-1.06 0.094,-1.694 0.51,-2.162 0.464,-0.55 1.283,-0.712 1.975,-0.712 1.46,0 2.427,0.473 2.691,1.754 0.062,0.296 0.107,0.66 0.107,1.217 l 0,4.62 0.951,0 0,-4.301 C 0.142,0.868 0.095,0.415 0,0"
         id="path4186"
         style="fill:#00412d;fill-opacity:1;fill-rule:nonzero;stroke:none" />
    </g>
    <g
       transform="matrix(6.8084011,0,0,-7.2870205,613.74915,394.93615)"
       id="g4188">
      <path
         d="m 0,0 -1.786,-3.72 3.489,0 L 0,0 z m 2.975,-6.538 -1.017,2.267 -4.009,0 -1.094,-2.267 -0.977,0 4.031,8.072 0.955,0 3.951,-8.072"
         id="path4190"
         style="fill:#00412d;fill-opacity:1;fill-rule:nonzero;stroke:none" />
    </g>
    <g
       transform="matrix(6.8084011,0,0,-7.2870205,363.1733,394.93615)"
       id="g4192">
      <path
         d="m 0,0 -1.787,-3.72 3.493,0 L 0,0 z m 2.977,-6.538 -1.022,2.267 -4.005,0 -1.095,-2.267 -0.979,0 4.03,8.072 0.966,0 3.946,-8.072"
         id="path4194"
         style="fill:#00412d;fill-opacity:1;fill-rule:nonzero;stroke:none" />
    </g>
    <g
       transform="matrix(6.8084011,0,0,-7.2870205,453.28222,443.80291)"
       id="g4196">
      <path
         d="m 0,0 c -2.672,0 -5.209,0.919 -5.209,4.015 0,1.01 0.446,2.044 1.125,2.783 1.058,1.146 2.672,1.602 4.186,1.602 0.924,0 1.987,-0.206 2.814,-0.626 l 0,-0.957 c -0.75,0.56 -1.728,0.942 -2.702,0.942 -2.197,0 -3.706,-1.37 -3.706,-3.636 0,-2.058 1.335,-3.465 3.388,-3.465 0.523,0 1.243,0.095 1.75,0.286 l 0,2.945 1.536,0 0,-3.284 C 2.277,0.193 0.993,0 0,0"
         id="path4198"
         style="fill:#00412d;fill-opacity:1;fill-rule:nonzero;stroke:none" />
    </g>
    <g
       transform="matrix(6.8084011,0,0,-7.2870205,691.62419,387.75115)"
       id="g4200">
      <path
         d="m 0,0 -1.132,0 0,-3.863 0.994,0 c 0.833,0 1.331,0.158 1.715,0.472 0.411,0.325 0.657,0.827 0.657,1.51 C 2.234,-0.517 1.243,0 0,0 m 2.626,-7.511 -2.137,3.095 -1.621,0 0,-3.095 -1.547,0 0,8.072 2.925,0 c 1.188,0 2.376,-0.175 3.033,-0.902 0.342,-0.386 0.539,-0.91 0.539,-1.594 0,-1.255 -0.951,-2.002 -1.789,-2.297 l 2.384,-3.279"
         id="path4202"
         style="fill:#00412d;fill-opacity:1;fill-rule:nonzero;stroke:none" />
    </g>
    <g
       transform="matrix(6.8084011,0,0,-7.2870205,290.62952,454.60227)"
       id="g4204">
      <path
         d="m 0,0 c -0.407,-0.188 -0.854,-0.314 -1.316,-0.314 1.064,0.765 1.507,1.543 1.666,2.83 0.089,0.711 0.089,1.427 0.089,2.138 l 0,5.08 1.542,0 0,-6.11 C 1.981,2.133 1.405,0.692 0,0"
         id="path4206"
         style="fill:#00412d;fill-opacity:1;fill-rule:nonzero;stroke:none" />
    </g>
  </g>
</svg>
