<svg xmlns="http://www.w3.org/2000/svg" xmlns:xlink="http://www.w3.org/1999/xlink" viewBox="0 0 465 208">
  <defs>
    <path id="a" d="M0 0h270v208H0z"/>
    <path id="c" d="M0 0h235v208H0z"/>
    <path id="e" d="M0 0h212v182H0z"/>
  </defs>
  <g fill="none" fill-rule="evenodd">
    <path stroke="#ED1C24" stroke-width="2.6667" d="M258 75H0m465 54H67m346-54H277"/>
    <path fill="#ED1C24" fill-rule="nonzero" d="m215 165.9609 34.405.0391L321 43.0335 286.595 43 215 165.9609"/>
    <g transform="translate(133)">
      <mask id="b" fill="#fff">
        <use xlink:href="#a"/>
      </mask>
      <path stroke="#FFF" stroke-width="5.3333" d="m81.4297 43.7069 34.4457-.0392 71.6795 123.5056-34.4457.0336z" mask="url(#b)" transform="matrix(1 0 0 -1 0 210.8746)"/>
    </g>
    <path fill="#ED1C24" fill-rule="nonzero" d="M322 165.9612 268.18 74 251 103.446 287.6063 166 322 165.9612"/>
    <g transform="translate(169)">
      <mask id="d" fill="#fff">
        <use xlink:href="#c"/>
      </mask>
      <path stroke="#FFF" stroke-width="5.3333" d="m152.9034 74.3353-53.7796 92.8716-17.1671-29.7375 36.5788-63.1733z" mask="url(#d)" transform="matrix(1 0 0 -1 0 241.503)"/>
    </g>
    <path fill="#ED1C24" fill-rule="nonzero" d="M250.6658 43 216 43.0336 248.6784 99 266 69.2567 250.6658 43"/>
    <g transform="translate(135)">
      <mask id="f" fill="#fff">
        <use xlink:href="#e"/>
      </mask>
      <path stroke="#FFF" stroke-width="5.3333" d="m115.7361 99.548-34.356-.0335 32.3864-55.8898 17.1668 29.7026z" mask="url(#f)" transform="matrix(1 0 0 -1 0 143.1727)"/>
    </g>
    <path fill="#FFF" fill-rule="nonzero" d="M8.781 90c-1.4492 0-2.6754.133-3.6787.4433-.981.3326-1.7836.776-2.3633 1.3744-.6465.5986-1.0924 1.2857-1.3377 2.106A9.9815 9.9815 0 0 0 1 96.7388v2.1503c0 2.1724.602 3.7906 1.7836 4.9211 1.1816 1.1306 3.166 1.7291 5.9305 1.7291h16.6321c1.0479 0 1.739.1995 2.185.532.379.3547.5796.8867.5796 1.5296v1.33c0 .8424-.2006 1.4853-.5797 1.8178-.4459.3546-1.137.5542-2.1849.5542H1.8918c-.602 0-.8918.2881-.8918.8867v3.9236c0 .5985.2898.8867.8918.8867H27.219c1.4492 0 2.6754-.1552 3.6564-.4877 1.0033-.3103 1.7836-.7315 2.4302-1.33.602-.5986 1.0478-1.33 1.293-2.1724.2453-.8202.4014-1.8178.4014-2.904v-2.7488c0-2.1059-.602-3.7463-1.7836-4.8768-1.204-1.1305-3.166-1.7069-5.9528-1.7069H10.6092c-1.0479 0-1.739-.1995-2.1403-.5985-.4014-.3325-.5797-.8867-.5797-1.5296v-.7315c0-.7315.1783-1.2857.5797-1.6626.4013-.3546 1.0924-.5542 2.1403-.5542h22.295c.602 0 .8919-.2881.8919-.8867v-3.9236c0-.5985-.2899-.8867-.8918-.8867H8.781Zm60.888-1c-.5577 0-.9592.2512-1.2047.7078l-11.6232 20.6646c-.2454 0-.4016-.0914-.5577-.2512-.1339-.1598-.3793-.4567-.6247-.9134l-10.9986-19.5c-.2454-.4566-.647-.7078-1.1824-.7078h-5.689c-.3569 0-.6023.0913-.6915.3425-.1562.2512-.1116.5708.0446.9134l13.3634 23.61c.4016.7079.8478 1.233 1.294 1.5756.4461.3653 1.0262.548 1.874.6165l-2.6772 4.8179c-.4462.7535-1.294 1.1645-2.521 1.1645h-2.9225c-.6024 0-.8924.2968-.8924.8905v4.1558c0 .6165.29.9133.8924.9133h3.458c2.1417 0 3.8149-.2968 5.0642-.8448 1.1824-.5709 2.1194-1.4157 2.7664-2.5803l19.0077-34.319c.1562-.3426.2008-.6622.0892-.9134-.1338-.2512-.3792-.3425-.7362-.3425h-5.5327Zm18.112 1c-1.4492 0-2.6754.133-3.6787.4433-.981.3326-1.7836.776-2.3633 1.3744-.6465.5986-1.0924 1.2857-1.3377 2.106A9.9815 9.9815 0 0 0 80 96.7388v2.1503c0 2.1724.602 3.7906 1.7836 4.9211 1.1816 1.1306 3.166 1.7291 5.9305 1.7291h16.6321c1.0479 0 1.739.1995 2.185.532.379.3547.5796.8867.5796 1.5296v1.33c0 .8424-.2006 1.4853-.5797 1.8178-.4459.3546-1.137.5542-2.1849.5542H80.8918c-.602 0-.8918.2881-.8918.8867v3.9236c0 .5985.2898.8867.8918.8867h25.3272c1.4492 0 2.6754-.1552 3.6564-.4877 1.0033-.3103 1.7836-.7315 2.4302-1.33.602-.5986 1.0478-1.33 1.293-2.1724.2453-.8202.4014-1.8178.4014-2.904v-2.7488c0-2.1059-.602-3.7463-1.7836-4.8768-1.204-1.1305-3.166-1.7069-5.9528-1.7069H89.6092c-1.0479 0-1.739-.1995-2.1403-.5985-.4014-.3325-.5797-.8867-.5797-1.5296v-.7315c0-.7315.1783-1.2857.5797-1.6626.4013-.3546 1.0924-.5542 2.1403-.5542h22.295c.602 0 .8919-.2881.8919-.8867v-3.9236c0-.5985-.2899-.8867-.8918-.8867H87.781Zm30.0912-.327c-.5888 0-.8722.2917-.8722.8975v4.0833c0 .5834.2834.8975.8722.8975h4.5787v11.532c0 1.75.1527 3.2981.4361 4.532.3053 1.2565.8286 2.2885 1.6135 3.0962.7195.7853 1.7443 1.391 2.9871 1.75 1.2646.3366 2.8563.5385 4.7968.5385h5.8434c.5888 0 .8722-.2917.8722-.8974v-4.0834c0-.6057-.2834-.8974-.8722-.8974H133.44c-1.5916 0-2.7036-.3365-3.227-.9872-.545-.6506-.8285-1.6378-.8285-3.0513v-11.532h8.4599c.5887 0 .8722-.3141.8722-.8975v-4.0833c0-.6058-.2835-.8974-.8722-.8974h-8.4599v-6.5737c0-.7404-.3488-1.0994-1.0683-1.0994h-4.7969c-.7195 0-1.0684.359-1.0684 1.0994v6.5737h-4.5787ZM154.831 90c-2.2407 0-4.123.1995-5.6242.532-1.5237.399-2.7337.9976-3.63 1.7734-.941.8424-1.5909 1.862-1.9718 3.1035-.4033 1.2857-.605 2.793-.605 4.5665v7.0936c0 1.7734.2017 3.2808.605 4.5221.381 1.2857 1.0307 2.3055 1.9718 3.1035.8963.8202 2.1063 1.4187 3.63 1.7734 1.5013.3325 3.3835.532 5.6242.532h21.4212c.605 0 .8963-.2882.8963-.8867v-4.1232c0-.5985-.2913-.8867-.8963-.8867h-20.7266c-2.1287 0-3.5851-.3546-4.3246-1.0418-.7394-.6872-1.1427-1.8178-1.1427-3.3473v-1.1749h25.1184c.9411 0 1.6805-.1995 2.1287-.6428.4481-.399.6946-1.1306.6946-2.1725V98.069c0-1.4853-.1569-2.771-.4033-3.7907-.2465-1.0418-.6947-1.862-1.3445-2.5049-.6274-.6429-1.5236-1.0862-2.6216-1.3744-1.1428-.266-2.532-.399-4.235-.399H154.831Zm-4.7727 9.8424c0-1.574.4033-2.7045 1.1427-3.4138.7395-.6207 2.196-.9754 4.3246-.9754h12.4808c1.1428 0 1.9494.1995 2.3976.6429.4481.4433.6274 1.1305.6274 2.1724v2.0615c0 .532-.2913.8202-.8291.8202h-20.144v-1.3078ZM194.8245 90c-2.2395 0-4.1207.1995-5.5987.532-1.5453.399-2.7546.9976-3.628 1.7734-.963.8424-1.59 1.862-1.9931 3.1035-.4031 1.2857-.6047 2.793-.6047 4.5665v15.9384c0 .7315.4031 1.0862 1.1421 1.0862h4.8821c.739 0 1.075-.3547 1.075-1.0862V101.66c0-1.0419.112-1.8842.2687-2.6158.1344-.6872.448-1.2192.8734-1.6625.4031-.399.963-.6872 1.6572-.8867.6943-.1552 1.59-.2439 2.6202-.2439h8.4653v19.6626c0 .7315.336 1.0862 1.075 1.0862h4.882c.739 0 1.1422-.3547 1.1422-1.0862V96.2512h8.734c1.0973 0 1.9931.0887 2.6426.2439.6494.1995 1.187.4877 1.5452.8867.336.4433.5823.9753.739 1.6625.1568.7316.2016 1.574.2016 2.6158v14.2537c0 .7315.3583 1.0862 1.0974 1.0862h4.8597c.7614 0 1.0973-.3547 1.0973-1.0862V99.9754c0-1.7734-.2016-3.2808-.5375-4.5665-.403-1.2414-1.0525-2.2611-1.9931-3.1035-.9406-.7758-2.15-1.3744-3.628-1.7734-1.5452-.3325-3.3816-.532-5.6211-.532h-25.3958Z"/>
    <path fill="#231F20" fill-rule="nonzero" d="m215 165.9609 34.405.0391L321 43.0335 286.595 43 215 165.9609"/>
    <path fill="#231F20" fill-rule="nonzero" d="M322 165.9612 268.18 74 251 103.446 287.6063 166 322 165.9612M250.6658 43 216 43.0336 248.6784 99 266 69.2567 250.6658 43"/>
    <path fill="#FFF" fill-rule="nonzero" d="M306.9317 96.1192c-.9724-.9811-1.4585-2.2239-1.4585-3.6846 0-1.4826.4861-2.6817 1.4585-3.6192.9512-.9375 2.135-1.4171 3.5724-1.4171.8032 0 1.5008.1308 2.0926.3924.592.2616 1.226.7195 1.9025 1.3953L316 87.4855C314.5415 85.8285 312.7236 85 310.5675 85c-2.1984 0-3.9951.7195-5.4114 2.1584C303.7398 88.5756 303 90.3852 303 92.5436c0 2.1366.7187 3.9244 2.1138 5.3416 1.3951 1.3953 3.1496 2.1148 5.2846 2.1148 2.1138 0 3.9105-.8503 5.4114-2.5509l-1.5431-1.6133c-.6342.6104-1.2683 1.0683-1.839 1.3299-.592.3052-1.2895.436-2.1139.436-1.3105 0-2.452-.4796-3.382-1.4825ZM320 86v14h11v-2.2139h-8.4226v-3.753h7.318v-2.1084h-7.318v-3.7108h8.1695V86zm25.7754 1.0753c-1.0196-.7169-2.688-1.0753-5.0517-1.0753H335v14h2.5954v-4.7018h3.4064L344.6863 100H348l-4.032-5.0813c2.2245-.6115 3.3136-2.0663 3.3136-4.3645 0-1.5813-.5098-2.762-1.5062-3.4789Zm-4.9358 6.0723h-3.2442v-4.997h3.3137c1.3904 0 2.3405.1476 2.8966.485.5562.3584.811.991.811 1.8975 0 .9067-.2548 1.5814-.7878 2.003-.533.4217-1.5063.6115-2.9893.6115Zm20.203 3.6687L362.4468 100H365l-6.234-14h-2.532L350 100h2.5532l1.4042-3.1837h7.0852Zm-6.1064-2.1928 2.5532-5.756 2.5744 5.756h-5.1276Zm15.4531-5.5663 4.928 9.7199h1.344l4.9494-9.7199V100H384V86h-3.712L376 94.7922 371.7333 86H368v14h2.3893zM389 100h3V86h-3zm10.9317-3.8808c-.9724-.9811-1.4585-2.2239-1.4585-3.6846 0-1.4826.4861-2.6817 1.4585-3.6192.9512-.9375 2.135-1.4171 3.5724-1.4171.8032 0 1.5008.1308 2.0926.3924.592.2616 1.226.7195 1.9025 1.3953L409 87.4855C407.5415 85.8285 405.7236 85 403.5675 85c-2.1984 0-3.9951.7195-5.4114 2.1584C396.7398 88.5756 396 90.3852 396 92.5436c0 2.1366.7187 3.9244 2.1138 5.3416 1.3951 1.3953 3.1496 2.1148 5.2846 2.1148 2.1138 0 3.9105-.8503 5.4114-2.5509l-1.5431-1.6133c-.6342.6104-1.2683 1.0683-1.839 1.3299-.592.3052-1.2895.436-2.1139.436-1.3105 0-2.452-.4796-3.382-1.4825ZM321.2819 106H316v14h2.5946v-4.1114h2.7336c2.2703 0 3.9382-.4006 5.0502-1.1808 1.0656-.78 1.6216-2.024 1.6216-3.7108 0-1.7078-.5328-2.9518-1.5985-3.7741-1.0888-.8223-2.7799-1.2229-5.1196-1.2229Zm.3243 7.759h-3.0116v-5.6084h2.641c1.413 0 2.4555.1898 3.1042.5904.6718.4006.9961 1.0753.9961 2.0451 0 .991-.2548 1.7079-.7645 2.2139-.5328.485-1.529.759-2.9652.759Zm21.1692-6.6837c-1.0196-.7169-2.688-1.0753-5.0517-1.0753H332v14h2.5954v-4.7018h3.4064L341.6863 120H345l-4.032-5.0813c2.2245-.6115 3.3136-2.0663 3.3136-4.3645 0-1.5813-.5098-2.762-1.5062-3.4789Zm-4.9358 6.0723h-3.2442v-4.997h3.3137c1.3904 0 2.3405.1476 2.8966.485.5562.3584.811.991.811 1.8975 0 .9067-.2548 1.5814-.7878 2.003-.533.4217-1.5063.6115-2.9893.6115Zm22.6961-.6586c0 1.463-.4928 2.7075-1.4571 3.7337-.9643 1.0044-2.1643 1.5284-3.5786 1.5284s-2.6143-.524-3.5571-1.5284c-.9858-1.0262-1.4786-2.2707-1.4786-3.7336 0-1.4629.4928-2.7074 1.4786-3.7118.9428-1.0262 2.1428-1.5502 3.5571-1.5502 1.4143 0 2.6143.524 3.5786 1.5502.9643 1.0044 1.4571 2.2489 1.4571 3.7118Zm2.4643 0c0-2.1397-.7286-3.93-2.1643-5.3493-1.4571-1.441-3.2143-2.1397-5.3357-2.1397s-3.8786.6987-5.3357 2.1397c-1.4357 1.4193-2.1643 3.2096-2.1643 5.3494 0 2.1397.7286 3.9083 2.1643 5.3493C351.6214 119.2576 353.3786 120 355.5 120s3.8786-.7424 5.3357-2.1616c1.4357-1.441 2.1643-3.2096 2.1643-5.3493Zm14-4.3173V106h-12v2.1717h4.7068V120h2.6097v-11.8283zM380 106v14h11v-2.2139h-8.4226v-3.753h7.318v-2.1084h-7.318v-3.7108h8.1695V106zm17.9317 10.1192c-.9724-.9811-1.4585-2.2239-1.4585-3.6846 0-1.4826.4861-2.6817 1.4585-3.6192.9512-.9375 2.135-1.4171 3.5724-1.4171.8032 0 1.5008.1308 2.0926.3924.592.2616 1.226.7195 1.9025 1.3953L407 107.4855c-1.4585-1.657-3.2764-2.4855-5.4325-2.4855-2.1984 0-3.9951.7195-5.4114 2.1584-1.4163 1.4172-2.1561 3.2268-2.1561 5.3852 0 2.1366.7187 3.9244 2.1138 5.3416 1.3951 1.3953 3.1496 2.1148 5.2846 2.1148 2.1138 0 3.9105-.8503 5.4114-2.5509l-1.5431-1.6133c-.6342.6104-1.2683 1.0683-1.839 1.3299-.592.3052-1.2895.436-2.1139.436-1.3105 0-2.452-.4796-3.382-1.4825ZM421 108.1717V106h-12v2.1717h4.7068V120h2.6097v-11.8283zM424 120h3v-14h-3zm19.5357-7.511c0 1.463-.4928 2.7075-1.4571 3.7337-.9643 1.0044-2.1643 1.5284-3.5786 1.5284s-2.6143-.524-3.5571-1.5284c-.9858-1.0262-1.4786-2.2707-1.4786-3.7336 0-1.4629.4928-2.7074 1.4786-3.7118.9428-1.0262 2.1428-1.5502 3.5571-1.5502 1.4143 0 2.6143.524 3.5786 1.5502.9643 1.0044 1.4571 2.2489 1.4571 3.7118Zm2.4643 0c0-2.1397-.7286-3.93-2.1643-5.3493-1.4571-1.441-3.2143-2.1397-5.3357-2.1397s-3.8786.6987-5.3357 2.1397c-1.4357 1.4193-2.1643 3.2096-2.1643 5.3494 0 2.1397.7286 3.9083 2.1643 5.3493C434.6214 119.2576 436.3786 120 438.5 120s3.8786-.7424 5.3357-2.1616c1.4357-1.441 2.1643-3.2096 2.1643-5.3493Zm14.6131 3.9688L452.3869 106H450v14h2.3869v-10.2048L460.4 120h2.6v-14h-2.3869z"/>
  </g>
</svg>
