<svg xmlns="http://www.w3.org/2000/svg" xmlns:xlink="http://www.w3.org/1999/xlink" viewBox="0 0 390 226"><defs><path id="a" d="M0 0h390v167.932H0z"/></defs><g fill="none" fill-rule="evenodd"><g transform="translate(.115)"><mask id="b" fill="#fff"><use xlink:href="#a"/></mask><g mask="url(#b)"><path fill="#04A8CB" fill-rule="nonzero" d="m331.865 107.438.203-.188-3.021-2.776-17.401-5.484-34.427-55.021-28.37 12.276L202.625-.057l-76.104 99.833-27.594-34.49L.177 168.031l69.448-62.411 5.146 8.37 22.073-35.771v26.635l9.885 9.136-14.458 9.13-13.698 28.927 15.98-16.745 12.176 28.156v-21.302l7.615-.77V123.12l33.484-9.89-11.417-13.454 64.698-75.599-9.895 32.068 14.463 9.041-15.219 3.032 3.813 5.333-10.667 2.287-10.656 20.171 11.411 16.355-6.843-1.516-9.896 9.896-25.11 39.578 19.776-17.51s-1.14 15.958-1.78 19.244c2.114-2.687 17.01-12.906 17.01-12.906l16.755 12.938 9.375-29.167 8.37 14.969-3.292-23.344 8.88-14.969s19.146 47.396 19.526 48.203c-.25-.76 4.068-38.047 4.068-38.047l12.943 21.808-4.073-18.266 17.765 9.13-9.64-24.088 15.474-45.172 36.026 48.208 2.536 28.922 4.005-16.906 1.089 2.255c.896 8.276 2.292 24.766-.52 24.766-2.74 0-12.063 10.708-16.678 15.5 6.474-3.51 22.615-9.037 22.615-9.037l6.01-7.687 5.344-6.839 2.63-3.36 2.193-2.812 50.666 31.776-57.718-60.594"/></g></g><path fill="#FFF" fill-rule="nonzero" d="M23.474 221.265c1.635 0 3.13-.276 4.479-.834a9.65 9.65 0 0 0 3.48-2.437c.958-1.068 1.697-2.38 2.228-3.938.526-1.567.792-3.36.792-5.375 0-2.208-.307-4.11-.917-5.708-.599-1.594-1.406-2.901-2.416-3.917a9.304 9.304 0 0 0-3.438-2.229 11.607 11.607 0 0 0-4.02-.708H8.87v25.146h14.604Zm.104-29.146c2.052 0 4.01.328 5.875.979a13.85 13.85 0 0 1 4.958 3c1.427 1.349 2.568 3.073 3.417 5.167.844 2.099 1.27 4.572 1.27 7.416 0 2.89-.426 5.375-1.27 7.459-.849 2.072-1.99 3.786-3.417 5.145a13.703 13.703 0 0 1-4.958 3 17.3 17.3 0 0 1-5.792.98H2.932v-.542c.526 0 .875-.068 1.042-.208.167-.136.25-.422.25-.855v-29.958c0-.427-.083-.708-.25-.833-.167-.136-.516-.209-1.042-.209v-.541h20.646Zm48.217 9.833h-.542c-.099-.458-.25-.755-.458-.896-.209-.135-.48-.208-.813-.208H51.295v8.75h12.437c.333 0 .61-.052.833-.167.235-.125.396-.427.48-.916h.562v5.541h-.562c-.084-.484-.245-.781-.48-.896-.223-.125-.5-.187-.833-.187H51.295v8.917h19.041c.427 0 .74-.073.938-.23.193-.15.338-.526.437-1.125h.542v5.813h-.542c-.099-.448-.244-.74-.437-.875-.198-.14-.51-.208-.938-.208h-23.77v-.542c.359 0 .604-.073.729-.23.125-.15.187-.442.187-.874v-24.5c0-.417-.062-.698-.187-.854-.125-.151-.37-.23-.73-.23v-.541H69.92c.333 0 .609-.063.833-.188.234-.125.401-.427.5-.916h.542v5.562Zm4.378-5.562h.541c.084.458.23.76.438.895.219.141.5.209.833.209h23.959c.333 0 .604-.068.812-.209.219-.135.375-.437.458-.895h.542v5.562h-.542c-.083-.458-.24-.755-.458-.896-.208-.135-.48-.208-.812-.208H91.88v22.73c0 .431.063.728.188.895.135.167.5.25 1.083.25v.542h-6.375v-.542c.568 0 .922-.083 1.062-.25.136-.167.209-.464.209-.896v-22.73H77.985c-.333 0-.614.074-.833.21-.208.14-.354.437-.438.895h-.541v-5.562Zm38.29 18.041h11.062l-5.645-13.02-5.417 13.02Zm9.375-16.937v.541c-.792.058-1.188.24-1.188.542 0 .24.125.62.375 1.146l10.48 24.042c.177.416.333.677.458.77.135.1.469.162 1 .188v.542h-6.48v-.542c.428 0 .714-.063.855-.188.135-.125.208-.26.208-.416 0-.209-.114-.542-.333-1l-2.354-5.334h-13.667a516.589 516.589 0 0 1-1.437 3.5 37.418 37.418 0 0 1-.75 1.709c-.25.541-.375.916-.375 1.125 0 .182.067.323.208.416.135.1.464.162.98.188v.542h-6.105v-.542c.36 0 .651-.073.875-.23.234-.15.427-.426.583-.833l10.063-24.166c.15-.375.229-.651.229-.834 0-.177-.094-.317-.27-.416-.183-.11-.516-.177-1-.209v-.541h7.645Zm22.457 0v.541c-.542 0-.89.079-1.042.23-.156.156-.229.427-.229.812v24.542c0 .432.073.724.23.875.15.156.5.229 1.04.229v.542h-6.374v-.542c.542 0 .885-.073 1.042-.23.15-.15.229-.442.229-.874v-24.542c0-.385-.078-.656-.23-.812-.156-.151-.5-.23-1.041-.23v-.541h6.375Zm14.518 0v.541c-.307 0-.52.073-.646.209-.114.125-.166.406-.166.833v22.813h18.125c.385 0 .687-.063.895-.188.22-.135.38-.469.48-1h.541v5.646h-.541c-.1-.49-.266-.792-.5-.917-.224-.114-.5-.166-.834-.166h-22.812v-.542c.302 0 .51-.068.625-.208.125-.136.187-.422.187-.855v-24.583c0-.427-.062-.708-.187-.833-.115-.136-.323-.209-.625-.209v-.541h5.458Zm56.921-5.834c2.651 0 4.927.266 6.833.792 1.917.531 3.48 1.037 4.688 1.52.61.25 1.125.475 1.542.668.427.197.734.291.916.291.219 0 .563-.177 1.021-.541l.542.187-2.834 5.917-.583-.271c0-.068.005-.146.02-.23a3 3 0 0 0 .022-.333c0-.291-.334-.677-1-1.166-.667-.485-1.578-.948-2.73-1.396-1.156-.443-2.53-.823-4.124-1.146-1.6-.318-3.323-.48-5.167-.48-1.458 0-2.802.142-4.021.418-1.208.28-2.26.682-3.146 1.208-.875.531-1.557 1.161-2.041 1.896-.49.724-.73 1.541-.73 2.458 0 1.031.313 1.844.938 2.438.625.583 1.479 1.041 2.562 1.375 1.094.333 2.401.578 3.917.729 1.526.156 3.198.291 5.02.416 1.918.157 3.74.365 5.48.625 1.75.25 3.292.688 4.625 1.313 1.344.625 2.417 1.49 3.208 2.583.802 1.084 1.209 2.537 1.209 4.354 0 1.641-.386 3.105-1.146 4.396-.75 1.292-1.813 2.39-3.188 3.292-1.364.89-2.994 1.573-4.895 2.042-1.891.468-3.99.708-6.292.708-3.073 0-5.677-.307-7.813-.917-2.14-.61-3.89-1.26-5.25-1.958a26.853 26.853 0 0 1-1.562-.833c-.49-.292-.85-.438-1.083-.438a.935.935 0 0 0-.459.125c-.156.073-.333.26-.541.563l-.605-.271 3.334-6.48.541.313c-.057.198-.104.354-.145.48a1.32 1.32 0 0 0-.042.353c0 .49.396 1.037 1.187 1.646.792.6 1.834 1.167 3.125 1.709 1.292.53 2.76.974 4.417 1.333a23.7 23.7 0 0 0 5.125.542c3.484 0 6.219-.568 8.208-1.709 2-1.135 3-2.677 3-4.625 0-1.177-.406-2.073-1.208-2.687-.807-.625-1.849-1.089-3.125-1.396-1.281-.302-2.724-.5-4.333-.583a237.839 237.839 0 0 1-4.813-.334 50.825 50.825 0 0 1-5.125-.604c-1.625-.292-3.062-.76-4.312-1.417-1.25-.65-2.24-1.53-2.959-2.645-.724-1.11-1.083-2.563-1.083-4.355 0-1.458.365-2.78 1.104-3.979.75-1.208 1.792-2.25 3.125-3.125 1.334-.875 2.901-1.552 4.709-2.041 1.802-.485 3.78-.73 5.937-.73Zm20.37 4.73h.542c.083.458.23.76.437.895.22.141.5.209.834.209h23.958c.333 0 .604-.068.813-.209.218-.135.375-.437.458-.895h.542v5.562h-.542c-.083-.458-.24-.755-.458-.896-.209-.135-.48-.208-.813-.208h-10.062v22.73c0 .431.062.728.187.895.136.167.5.25 1.083.25v.542h-6.375v-.542c.568 0 .922-.083 1.063-.25.135-.167.208-.464.208-.896v-22.73h-10.062c-.334 0-.615.074-.834.21-.208.14-.354.437-.437.895h-.542v-5.562Zm39.832 1.104v.541c-.542 0-.89.079-1.042.23-.156.156-.229.453-.229.895v17.542c0 1.917.735 3.344 2.209 4.27 1.468.918 3.922 1.376 7.354 1.376 3.427 0 5.88-.458 7.354-1.375 1.469-.927 2.208-2.354 2.208-4.27v-17.584c0-.417-.062-.698-.187-.854-.115-.151-.354-.23-.73-.23v-.541h5.667v.541c-.349 0-.593.079-.729.23-.125.156-.187.437-.187.854v17.354c0 3.016-1.094 5.312-3.271 6.896-2.167 1.573-5.542 2.354-10.125 2.354-4.584 0-7.969-.776-10.146-2.333-2.167-1.568-3.25-3.886-3.25-6.959V199.12c0-.417-.078-.698-.23-.854-.14-.151-.489-.23-1.04-.23v-.541h6.374Zm47.183 24.396c2.943 0 5.23-.922 6.854-2.771 1.625-1.844 2.438-4.563 2.438-8.146 0-3.318-.927-5.833-2.771-7.542-1.834-1.719-4.37-2.583-7.604-2.583h-9.792v21.042h10.875Zm.375-24.396c1.719 0 3.354.302 4.896.896a11.614 11.614 0 0 1 4.062 2.562c1.151 1.125 2.068 2.516 2.75 4.167.693 1.656 1.042 3.531 1.042 5.625 0 2.364-.307 4.453-.917 6.27-.614 1.823-1.479 3.344-2.604 4.563-1.125 1.208-2.5 2.125-4.125 2.75s-3.453.938-5.479.938h-15.98v-.542c.511 0 .855-.068 1.022-.208.166-.136.25-.422.25-.855v-24.583c0-.427-.084-.708-.25-.833-.167-.136-.51-.209-1.021-.209v-.541h16.354Zm25.72 0v.541c-.542 0-.89.079-1.042.23-.156.156-.229.427-.229.812v24.542c0 .432.073.724.23.875.15.156.5.229 1.04.229v.542h-6.374v-.542c.542 0 .885-.073 1.042-.23.15-.15.229-.442.229-.874v-24.542c0-.385-.078-.656-.23-.812-.156-.151-.5-.23-1.041-.23v-.541h6.375Zm10.06 13.875c0 1.791.338 3.375 1.02 4.75a10.37 10.37 0 0 0 2.709 3.437 11.782 11.782 0 0 0 3.875 2.084c1.458.474 2.979.708 4.562.708 1.542 0 3.032-.24 4.48-.73a11.714 11.714 0 0 0 3.812-2.103c1.11-.928 2-2.073 2.667-3.438.677-1.375 1.02-2.943 1.02-4.708 0-1.76-.348-3.323-1.041-4.688a10.952 10.952 0 0 0-2.688-3.458 11.116 11.116 0 0 0-3.812-2.125 14.441 14.441 0 0 0-4.48-.708c-1.53 0-3.02.229-4.478.687a11.607 11.607 0 0 0-3.896 2.083c-1.14.917-2.052 2.063-2.73 3.438-.682 1.364-1.02 2.953-1.02 4.77Zm12.062-14.334c2.193 0 4.25.323 6.167.959 1.927.625 3.614 1.557 5.062 2.791a13.372 13.372 0 0 1 3.417 4.521c.833 1.766 1.25 3.787 1.25 6.063 0 2.198-.396 4.177-1.187 5.937a12.974 12.974 0 0 1-3.292 4.5c-1.417 1.24-3.1 2.203-5.042 2.896-1.948.677-4.073 1.02-6.375 1.02-2.24 0-4.328-.332-6.27-1-1.949-.666-3.636-1.608-5.063-2.832a12.851 12.851 0 0 1-3.354-4.521c-.808-1.776-1.209-3.776-1.209-6 0-2.276.417-4.297 1.25-6.063a13.646 13.646 0 0 1 3.417-4.52c1.443-1.235 3.13-2.167 5.063-2.792 1.927-.636 3.984-.959 6.166-.959ZM61.157 160.2h-.5c-.083-.526-.208-.875-.375-1.042-.156-.167-.432-.25-.833-.25H39.51v9.333h13.46c.427 0 .708-.114.833-.354.136-.234.234-.552.292-.958h.5v6.333h-.5c-.084-.568-.203-.948-.354-1.146-.141-.208-.396-.312-.771-.312H39.51v11.583c0 .375.068.636.209.771.15.14.51.208 1.083.208v.48h-6.73v-.48c.569 0 .928-.067 1.084-.208.151-.135.23-.396.23-.77v-26.626c0-.375-.079-.625-.23-.75-.156-.125-.49-.187-1-.187v-.48h25.417c.427 0 .698-.114.812-.354a3.17 3.17 0 0 0 .271-.937h.5v6.146Zm21.226 10.958c.552 0 1.094-.083 1.625-.25a4.15 4.15 0 0 0 1.396-.75c.416-.333.74-.75.979-1.25.25-.5.375-1.089.375-1.77 0-.652-.125-1.23-.375-1.73-.24-.5-.636-.917-1.188-1.25-.557-.333-1.28-.589-2.166-.77-.891-.178-2-.272-3.334-.272H70.3v8.042h12.084Zm-1.021-11.02c2.75 0 4.901.583 6.458 1.75 1.552 1.155 2.334 2.848 2.334 5.083 0 2.03-.625 3.661-1.875 4.895-1.24 1.224-2.933 1.907-5.084 2.042l5.896 9.438c.193.291.406.536.646.729.25.198.74.291 1.48.291v.48h-6.73v-.48c.401-.026.672-.083.812-.166.152-.084.23-.235.23-.459a.737.737 0 0 0-.105-.333 8.24 8.24 0 0 0-.416-.708l-5.5-8.542h-9.209v9.23c0 .374.068.635.209.77.15.14.51.208 1.083.208v.48h-6v-.48c.568 0 .927-.067 1.083-.208.152-.135.23-.38.23-.73v-21.832c0-.386-.078-.646-.23-.771-.156-.136-.515-.209-1.083-.209v-.479h15.771Zm17.371 12.353c0 1.6.302 3.01.917 4.23a9.268 9.268 0 0 0 2.417 3.041 10.58 10.58 0 0 0 3.437 1.875c1.292.417 2.636.625 4.042.625 1.385 0 2.719-.213 4-.646a10.778 10.778 0 0 0 3.396-1.895c.984-.818 1.776-1.834 2.375-3.042.593-1.219.896-2.615.896-4.188 0-1.567-.308-2.958-.917-4.166-.6-1.22-1.39-2.25-2.375-3.084a9.883 9.883 0 0 0-3.417-1.895 12.77 12.77 0 0 0-3.979-.625 13.34 13.34 0 0 0-3.98.604 10.173 10.173 0 0 0-3.457 1.854 9.153 9.153 0 0 0-2.438 3.062c-.615 1.209-.917 2.625-.917 4.25Zm10.75-12.77c1.943 0 3.771.286 5.48.854 1.718.573 3.218 1.406 4.5 2.5 1.276 1.083 2.28 2.416 3.02 4 .75 1.583 1.125 3.39 1.125 5.416 0 1.948-.354 3.703-1.062 5.271a11.56 11.56 0 0 1-2.938 4c-1.25 1.115-2.744 1.974-4.479 2.584-1.724.593-3.604.895-5.646.895-2 0-3.87-.291-5.604-.875-1.724-.593-3.224-1.442-4.5-2.541a11.575 11.575 0 0 1-2.979-4c-.708-1.584-1.062-3.36-1.062-5.334 0-2.026.364-3.833 1.104-5.416.75-1.584 1.76-2.917 3.041-4 1.292-1.094 2.792-1.927 4.5-2.5 1.72-.568 3.552-.854 5.5-.854Zm26.434.416v.48c-.291.03-.49.077-.583.145-.099.073-.146.156-.146.25 0 .14.13.386.396.73.276.333.823.989 1.646 1.958l7.896 9.354 5.625 6.77h.083v-18.228c0-.386-.073-.646-.208-.771-.125-.136-.407-.209-.834-.209v-.479h5.188v.48c-.433 0-.719.072-.854.208-.141.125-.209.385-.209.77v21.834c0 .375.068.625.209.75.135.125.421.187.854.187v.48h-5.834v-.48c.428-.026.693-.073.792-.145.11-.068.167-.157.167-.271 0-.084-.042-.172-.125-.271a5.729 5.729 0 0 0-.396-.5l-5.52-6.521-10.73-12.875h-.083v19.563c0 .406.062.677.187.812.125.14.386.208.792.208v.48h-5.021v-.48c.401 0 .656-.067.77-.208.126-.135.188-.406.188-.812v-21.792c0-.36-.062-.604-.187-.73-.115-.135-.37-.208-.771-.208v-.479h6.708Zm24.266-.979h.5c.084.406.214.667.396.792.193.125.438.187.73.187h21.312c.302 0 .547-.062.73-.187.192-.125.332-.386.416-.792h.479v4.938h-.48c-.083-.402-.223-.667-.416-.792-.182-.125-.427-.188-.73-.188h-8.957v20.23c0 .375.062.64.187.791.125.156.443.23.958.23v.479h-5.666v-.48c.5 0 .812-.073.937-.229.125-.15.188-.416.188-.791v-20.23h-8.959c-.291 0-.536.063-.729.188-.182.125-.312.39-.396.792h-.5v-4.938Zm64.987 9.396c1.543 0 2.761-.417 3.668-1.25.9-.833 1.354-2.104 1.354-3.813 0-1.427-.537-2.547-1.604-3.354-1.058-.818-2.438-1.229-4.146-1.229H210.92v9.646h14.25Zm-.77-13.208c1.427 0 2.75.187 3.958.562 1.22.365 2.271.906 3.146 1.625a7.449 7.449 0 0 1 2.084 2.625c.5 1.031.75 2.208.75 3.542 0 1.182-.188 2.26-.563 3.229a6.904 6.904 0 0 1-1.583 2.5c-.683.698-1.516 1.24-2.5 1.625-.99.39-2.084.599-3.292.625l7.292 11.833c.208.292.4.5.583.625.177.125.52.203 1.02.23v.479h-7.645v-.48c.542-.026.901-.088 1.083-.187.193-.094.292-.26.292-.5 0-.25-.115-.547-.333-.896-.209-.344-.5-.844-.875-1.5l-5.646-9.167h-11.25v11.23c0 .406.068.677.208.812.151.14.51.208 1.084.208v.48h-6.73v-.48c.568 0 .922-.067 1.063-.208.15-.135.23-.396.23-.77v-26.584c0-.375-.08-.63-.23-.771-.14-.135-.495-.208-1.063-.208v-.48H224.4Zm21.639 19.854h9.833l-5.02-11.584-4.813 11.584Zm8.333-15.063v.48c-.698.057-1.041.218-1.041.479 0 .223.104.562.312 1.02l9.333 21.396c.152.375.292.604.417.688.125.083.417.14.875.166v.48h-5.75v-.48c.375 0 .625-.052.75-.166a.488.488 0 0 0 .188-.375c0-.177-.1-.47-.292-.875l-2.104-4.75h-12.167c-.515 1.265-.937 2.302-1.27 3.104a34.08 34.08 0 0 1-.667 1.52c-.224.49-.334.824-.334 1a.42.42 0 0 0 .188.376c.125.083.416.14.875.166v.48h-5.438v-.48c.334 0 .594-.067.792-.208.208-.135.38-.38.52-.73l8.938-21.52c.136-.318.209-.562.209-.73 0-.166-.084-.29-.25-.374-.157-.094-.448-.156-.875-.188v-.479h6.791Zm21.104 0v.48c-.291.03-.49.077-.583.145-.1.073-.146.156-.146.25 0 .14.13.386.396.73.276.333.823.989 1.646 1.958l7.896 9.354 5.625 6.77h.083v-18.228c0-.386-.073-.646-.208-.771-.125-.136-.407-.209-.834-.209v-.479h5.188v.48c-.433 0-.72.072-.854.208-.141.125-.209.385-.209.77v21.834c0 .375.068.625.209.75.135.125.421.187.854.187v.48h-5.834v-.48c.427-.026.693-.073.792-.145.11-.068.167-.157.167-.271 0-.084-.042-.172-.125-.271a5.729 5.729 0 0 0-.396-.5l-5.521-6.521-10.73-12.875h-.082v19.563c0 .406.062.677.187.812.125.14.385.208.792.208v.48h-5.021v-.48c.4 0 .656-.067.77-.208.126-.135.188-.406.188-.812v-21.792c0-.36-.062-.604-.187-.73-.115-.135-.37-.208-.771-.208v-.479h6.708Zm39.141-.417c1.625 0 3.188.204 4.688.605 1.5.406 3.031.99 4.604 1.75.458.208.833.385 1.125.52.292.141.505.209.646.209a.788.788 0 0 0 .542-.188 3.94 3.94 0 0 1 .395-.291l.396.187-2.875 4.584-.396-.25c.052-.152.094-.292.125-.417.026-.125.042-.26.042-.417 0-.193-.26-.469-.77-.833-.516-.375-1.204-.74-2.063-1.104-.85-.36-1.85-.672-3-.938a15.174 15.174 0 0 0-3.584-.416c-1.583 0-3.036.229-4.354.687-1.307.458-2.427 1.135-3.354 2.02a9.269 9.269 0 0 0-2.187 3.168c-.532 1.223-.792 2.598-.792 4.125 0 1.572.297 2.953.896 4.145a8.87 8.87 0 0 0 2.458 2.98c1.026.791 2.214 1.395 3.563 1.812 1.359.406 2.796.604 4.312.604.583 0 1.234-.068 1.958-.208a16.452 16.452 0 0 0 2.188-.563 20.93 20.93 0 0 0 2.167-.875 12.393 12.393 0 0 0 1.895-1.125v-3.875h-5.708c-.292 0-.542.058-.75.167-.198.099-.333.365-.417.792h-.5v-4.938h.5c.084.406.214.667.396.792.193.125.438.187.73.187h9.729v.48c-.375.03-.563.229-.563.604v5.146c0 .515.198.812.604.895v.73c-2.349 1.864-4.552 3.125-6.604 3.791-2.057.651-4.057.98-6 .98-1.89 0-3.698-.282-5.417-.834-1.708-.568-3.224-1.385-4.541-2.458a12.168 12.168 0 0 1-3.146-3.917c-.781-1.542-1.167-3.297-1.167-5.27 0-2.011.354-3.834 1.063-5.46.708-1.624 1.692-2.989 2.958-4.103 1.26-1.125 2.755-1.985 4.48-2.584 1.734-.593 3.645-.895 5.728-.895Zm42.018 4.376h-.48c-.083-.402-.224-.667-.416-.792-.183-.125-.427-.188-.73-.188h-16.604v7.792h11.063c.292 0 .531-.052.73-.167.207-.109.353-.38.437-.812h.479v4.958h-.48c-.083-.443-.229-.713-.437-.812a1.48 1.48 0 0 0-.73-.167h-11.062v7.938h16.938c.375 0 .646-.063.812-.188.178-.135.313-.48.396-1.02h.48v5.187h-.48c-.083-.407-.218-.667-.396-.792-.166-.125-.437-.187-.812-.187h-21.167v-.48c.334 0 .547-.067.646-.208.11-.135.167-.396.167-.77v-21.792c0-.386-.058-.646-.167-.771-.099-.136-.312-.209-.646-.209v-.479h20.792c.302 0 .552-.052.75-.166.208-.11.354-.38.437-.813h.48v4.938Z"/></g></svg>